<svg width="18" height="18" viewBox="0 0 18 18" fill="none" xmlns="http://www.w3.org/2000/svg">
<path d="M15.8879 17.3038L10.1729 11.5878C7.63059 13.3953 4.12735 12.9532 2.11379 10.5708C0.100226 8.18834 0.248077 4.66042 2.45392 2.45483C4.65918 0.248274 8.18744 0.0997839 10.5703 2.11324C12.9532 4.1267 13.3955 7.63027 11.5879 10.1728L17.3029 15.8888L15.8889 17.3028L15.8879 17.3038ZM6.69592 2.69681C4.79962 2.69639 3.16361 4.0275 2.77839 5.88426C2.39318 7.74102 3.36463 9.6131 5.1046 10.3671C6.84456 11.121 8.87482 10.5497 9.96616 8.99888C11.0575 7.4481 10.91 5.34414 9.61292 3.96083L10.2179 4.56083L9.53592 3.88083L9.52392 3.86883C8.77571 3.116 7.75731 2.69395 6.69592 2.69681Z" fill="white"/>
</svg>
