<svg width="22" height="22" viewBox="0 0 22 22" fill="none" xmlns="http://www.w3.org/2000/svg">
<path d="M11.6903 0H10.3096C9.19291 0 8.28433 0.908531 8.28433 2.02525V2.49236C7.80957 2.64404 7.3483 2.83551 6.90516 3.06483L6.57413 2.7338C5.77238 1.93106 4.48809 1.95461 3.70962 2.7341L2.73376 3.70992C1.95392 4.4889 1.93149 5.77277 2.73402 6.57443L3.06479 6.90521C2.83546 7.34834 2.64404 7.80953 2.49232 8.28437H2.02525C0.908574 8.28437 0 9.19291 0 10.3096V11.6904C0 12.8071 0.908574 13.7156 2.02529 13.7156H2.49236C2.64408 14.1904 2.83551 14.6517 3.06483 15.0948L2.7338 15.4258C1.93175 16.227 1.95388 17.511 2.73406 18.2903L3.71001 19.2662C4.49028 20.0475 5.77427 20.0671 6.57448 19.2659L6.90521 18.9352C7.34834 19.1645 7.80961 19.356 8.28438 19.5077V19.9748C8.28438 21.0915 9.19291 22 10.3097 22H11.6904C12.8071 22 13.7156 21.0915 13.7156 19.9748V19.5076C14.1904 19.356 14.6517 19.1645 15.0948 18.9352L15.4258 19.2662C16.2276 20.0689 17.5119 20.0454 18.2903 19.2659L19.2662 18.2901C20.046 17.5111 20.0685 16.2272 19.2659 15.4256L18.9352 15.0948C19.1645 14.6517 19.3559 14.1905 19.5076 13.7156H19.9747C21.0914 13.7156 22 12.8071 22 11.6904V10.3096C22 9.19291 21.0914 8.28437 19.9747 8.28437H19.5076C19.3559 7.80957 19.1645 7.34834 18.9352 6.90521L19.2662 6.57418C20.0683 5.77298 20.0461 4.48899 19.2659 3.70967L18.29 2.73376C17.5097 1.95241 16.2257 1.93291 15.4255 2.73401L15.0948 3.06475C14.6517 2.83546 14.1904 2.644 13.7156 2.49227V2.02516C13.7156 0.908531 12.8071 0 11.6903 0ZM7.12065 4.41848C7.73627 4.0544 8.39884 3.77936 9.08995 3.601C9.37458 3.52756 9.57344 3.27087 9.57344 2.97692V2.02525C9.57344 1.61932 9.90374 1.28906 10.3097 1.28906H11.6904C12.0963 1.28906 12.4266 1.61932 12.4266 2.02525V2.97692C12.4266 3.27087 12.6255 3.52756 12.9101 3.601C13.6012 3.77936 14.2638 4.0544 14.8794 4.41848C15.1327 4.56827 15.4552 4.52753 15.6633 4.31943L16.3374 3.6453C16.628 3.35431 17.0947 3.36106 17.3782 3.645L18.3548 4.6215C18.6376 4.90398 18.6471 5.37079 18.355 5.66242L17.6807 6.33682C17.4726 6.54487 17.4319 6.8674 17.5816 7.12065C17.9457 7.73622 18.2207 8.3988 18.399 9.08995C18.4725 9.37458 18.7292 9.57339 19.0231 9.57339H19.9748C20.3807 9.57339 20.711 9.90365 20.711 10.3096V11.6903C20.711 12.0963 20.3807 12.4265 19.9748 12.4265H19.0231C18.7292 12.4265 18.4725 12.6254 18.399 12.91C18.2207 13.6011 17.9456 14.2637 17.5816 14.8793C17.4319 15.1325 17.4726 15.455 17.6807 15.6631L18.3548 16.3372C18.6462 16.6283 18.6386 17.0949 18.355 17.3782L17.3786 18.3546C17.0955 18.638 16.6287 18.6463 16.3377 18.3549L15.6633 17.6805C15.4553 17.4724 15.1326 17.4316 14.8794 17.5814C14.2638 17.9455 13.6012 18.2206 12.9101 18.3989C12.6255 18.4724 12.4266 18.729 12.4266 19.023V19.9748C12.4266 20.3807 12.0963 20.7109 11.6904 20.7109H10.3097C9.90378 20.7109 9.57348 20.3807 9.57348 19.9748V19.0231C9.57348 18.7291 9.37462 18.4724 9.09 18.399C8.39889 18.2206 7.73631 17.9456 7.1207 17.5815C6.86735 17.4318 6.54487 17.4725 6.33682 17.6806L5.66272 18.3547C5.37208 18.6457 4.90531 18.6389 4.62185 18.355L3.6453 17.3785C3.36248 17.096 3.35302 16.6293 3.64504 16.3376L4.31943 15.6632C4.52749 15.4551 4.56822 15.1326 4.41848 14.8793C4.0544 14.2638 3.7794 13.6012 3.60104 12.91C3.52756 12.6254 3.27087 12.4266 2.97696 12.4266H2.02529C1.61936 12.4266 1.28906 12.0963 1.28906 11.6904V10.3096C1.28906 9.9037 1.61936 9.57344 2.02529 9.57344H2.97692C3.27087 9.57344 3.52752 9.37458 3.601 9.09C3.77936 8.39884 4.0544 7.73627 4.41843 7.1207C4.56818 6.86744 4.52745 6.54491 4.31939 6.33686L3.64525 5.66272C3.35384 5.37165 3.36145 4.90501 3.645 4.62181L4.62146 3.64534C4.9045 3.36192 5.37131 3.35362 5.66238 3.64508L6.33673 4.31948C6.49004 4.47275 6.809 4.60281 7.12065 4.41848Z" fill="#489D96"/>
<path d="M11.0001 6.21331C8.36066 6.21331 6.21338 8.36063 6.21338 11C6.21338 13.6394 8.36066 15.7867 11.0001 15.7867C13.6395 15.7867 15.7868 13.6394 15.7868 11C15.7868 8.36063 13.6395 6.21331 11.0001 6.21331ZM11.0001 14.4977C9.07145 14.4977 7.50244 12.9286 7.50244 11C7.50244 9.07142 9.07149 7.50237 11.0001 7.50237C12.9287 7.50237 14.4978 9.07142 14.4978 11C14.4978 12.9286 12.9287 14.4977 11.0001 14.4977Z" fill="#489D96"/>
</svg>
