<svg width="26" height="16" viewBox="0 0 26 16" fill="none" xmlns="http://www.w3.org/2000/svg">
<path d="M25.466 13.6765C25.3977 13.5623 24.9757 12.6452 22.9448 10.7602C20.8187 8.78643 21.1043 9.10693 23.6651 5.69403C25.2248 3.61552 25.8484 2.34619 25.6532 1.80355C25.4676 1.2863 24.3204 1.42276 24.3204 1.42276L20.5061 1.44497C20.5061 1.44497 20.2237 1.40689 20.0126 1.53224C19.808 1.65599 19.6763 1.94159 19.6763 1.94159C19.6763 1.94159 19.0718 3.55046 18.2657 4.91816C16.5664 7.80429 15.8857 7.95661 15.6081 7.77731C14.9623 7.36002 15.1242 6.09863 15.1242 5.20376C15.1242 2.40648 15.5478 1.24029 14.2975 0.938826C13.8818 0.838866 13.5772 0.772227 12.5157 0.76112C11.1543 0.74684 10.0008 0.76588 9.34873 1.0848C8.91399 1.29741 8.5792 1.77182 8.78388 1.79879C9.03616 1.83211 9.60736 1.9527 9.91041 2.36523C10.3023 2.89676 10.288 4.0931 10.288 4.0931C10.288 4.0931 10.5133 7.38541 9.76285 7.79477C9.24718 8.07561 8.54112 7.50282 7.02587 4.88325C6.24999 3.54253 5.66293 2.05901 5.66293 2.05901C5.66293 2.05901 5.55028 1.78293 5.34877 1.63537C5.10443 1.45608 4.76171 1.39896 4.76171 1.39896L1.13462 1.42117C1.13462 1.42117 0.590396 1.43704 0.390477 1.67345C0.212772 1.88447 0.376198 2.31922 0.376198 2.31922C0.376198 2.31922 3.21631 8.96255 6.43087 12.312C9.38046 15.3822 12.7283 15.1807 12.7283 15.1807H14.2451C14.2451 15.1807 14.7037 15.1299 14.9369 14.8776C15.1527 14.6459 15.1448 14.2112 15.1448 14.2112C15.1448 14.2112 15.1146 12.1755 16.0603 11.8756C16.9916 11.5805 18.188 13.8431 19.4557 14.7142C20.4141 15.3726 21.1423 15.2283 21.1423 15.2283L24.533 15.1807C24.533 15.1807 26.3069 15.0712 25.466 13.6765Z" fill="#489D96"/>
</svg>
