<svg width="160" height="116" viewBox="0 0 160 116" fill="none" xmlns="http://www.w3.org/2000/svg">
<path d="M13.1796 39.9443C13.3596 38.3364 14.0503 36.8264 15.1524 35.631C16.2545 34.4356 17.7113 33.6164 19.3137 33.2909L10.5193 26.6838C8.74302 27.0456 7.15198 28.0136 6.0246 29.4184C4.89722 30.8232 4.30531 32.5754 4.35247 34.3682L13.1468 40.9661C13.132 40.6251 13.1429 40.2836 13.1796 39.9443C13.1702 40.0599 13.1936 39.8379 13.1796 39.9443Z" fill="url(#paint0_linear)"/>
<path d="M17.4948 94.9602C16.3565 93.8967 15.6851 92.4343 15.6246 90.8868L13.1513 40.9521L4.35229 34.3682L6.82557 84.3028C6.87563 85.3792 7.211 86.4236 7.79804 87.3313C8.49467 88.3716 9.55598 89.0513 10.5472 89.7956L17.8735 95.2792C17.7419 95.1792 17.6155 95.0728 17.4948 94.9602Z" fill="url(#paint1_linear)"/>
<path d="M142.145 5.54947C141.499 5.07342 140.759 4.7362 139.973 4.55944C139.187 4.38268 138.373 4.37028 137.582 4.52303L10.5193 26.6839L19.3137 33.291L146.353 11.1255C147.143 10.974 147.957 10.987 148.741 11.1638C149.526 11.3405 150.265 11.677 150.911 12.1519L142.145 5.54947Z" fill="url(#paint2_linear)"/>
<path d="M44.5983 90.5123C43.9619 90.0435 43.2336 89.7112 42.4599 89.5369C41.6862 89.3625 40.8842 89.3499 40.1053 89.4997L13.8577 94.077C12.5405 94.3236 11.1859 94.299 9.87873 94.0046C8.57153 93.7103 7.33973 93.1526 6.26025 92.3663L14.171 98.303C15.2901 99.2304 16.5701 99.9495 17.9487 100.425C19.4749 100.873 21.0862 100.958 22.6521 100.675L48.895 96.0976C50.4659 95.8248 47.5297 92.7131 44.5983 90.5123Z" fill="url(#paint3_linear)"/>
<path d="M64.2114 91.5298L56.1931 105.068L64.9875 111.665L73.0011 98.1276L64.2114 91.5298Z" fill="url(#paint4_linear)"/>
<path d="M64.6596 112.192C64.7718 112.017 64.8793 111.841 64.9869 111.665L56.1925 105.067C54.8974 107.259 51.9052 110.935 49.0251 108.766L53.5649 112.174L55.9026 113.935C56.6221 114.545 57.3846 115.102 58.1842 115.605C60.8679 117.061 63.3832 114.171 64.6502 112.188C64.7484 112.049 64.6269 112.243 64.6596 112.192Z" fill="url(#paint5_linear)"/>
<path d="M73.4686 97.406C74.8072 95.5379 76.4824 93.9298 78.4104 92.6622C80.2806 91.3907 82.3985 90.2533 84.6614 89.8603L75.8717 83.2625C73.4452 83.6878 71.0935 84.9547 69.1392 86.4019C67.1765 87.771 65.5052 89.5085 64.2207 91.5155L73.0104 98.1134C73.1553 97.8683 73.3143 97.6233 73.4779 97.3921C73.4966 97.3597 73.3611 97.5586 73.4686 97.406Z" fill="url(#paint6_linear)"/>
<path d="M153.754 8.4714L149.359 5.17016C147.9 4.079 146.409 2.94622 144.969 1.87817C145.128 2.00301 145.287 2.12785 145.436 2.25731C146.424 3.13716 147.223 4.20459 147.785 5.39606C148.348 6.58753 148.662 7.87869 148.709 9.19268L157.503 15.7859C157.452 14.3707 157.091 12.9834 156.443 11.7203C155.796 10.4572 154.878 9.34861 153.754 8.4714Z" fill="url(#paint7_linear)"/>
<path d="M140.915 71.9209L75.8713 83.2625L84.661 89.8604L149.709 78.5188L140.915 71.9209Z" fill="url(#paint8_linear)"/>
<path d="M148.718 9.19751L157.513 15.7907L159.986 65.7162L151.192 59.1183L148.718 9.19751Z" fill="url(#paint9_linear)"/>
<path d="M159.944 67.399C160 66.8398 160.014 66.2773 159.986 65.716L151.192 59.1182C151.486 65.0965 146.895 70.8806 140.906 71.9209L149.7 78.5187C155.091 77.594 159.416 72.7531 159.935 67.4221C159.953 67.2973 159.911 67.5053 159.944 67.399Z" fill="url(#paint10_linear)"/>
<path d="M56.2021 93.3974L47.4077 86.7996C48.541 87.6793 49.4638 88.7956 50.1104 90.0688C50.757 91.342 51.1113 92.7407 51.148 94.1649V105.779L56.4639 98.1828C56.4639 98.1828 58.1564 95.4087 58.0442 95.27C57.4866 94.5938 56.8702 93.9673 56.2021 93.3974Z" fill="url(#paint11_linear)"/>
<path d="M137.362 0.162938C143.328 -0.877367 148.419 3.17289 148.719 9.19741L151.192 59.1321C151.491 65.1427 146.881 70.8945 140.906 71.9348L75.8717 83.2626C71.7807 83.9792 66.4415 87.7613 64.2113 91.5295L56.193 105.067C54.6876 107.606 53.0933 109.044 51.4475 109.33C51.0101 109.413 50.5598 109.4 50.1278 109.293C49.6959 109.186 49.2927 108.987 48.9462 108.711C47.8428 107.818 47.2584 106.168 47.1602 103.662L46.8236 94.914C46.8095 94.0928 46.6163 93.2844 46.2572 92.5439C45.8982 91.8034 45.3817 91.1483 44.7431 90.6233C44.0995 90.113 43.3511 89.7477 42.55 89.5528C41.749 89.358 40.9146 89.3383 40.1051 89.4951L13.8576 94.0725C7.89178 95.1174 2.819 91.0856 2.50108 85.0472L0.0137808 35.1403C-0.285443 29.1297 4.32447 23.3779 10.2996 22.3376L137.362 0.162938ZM146.867 59.8719L144.394 9.93719C144.378 9.11312 144.178 8.30266 143.81 7.56312C143.442 6.82358 142.915 6.17301 142.264 5.65742C141.614 5.14183 140.857 4.77381 140.047 4.57937C139.237 4.38494 138.394 4.36884 137.577 4.53222L10.5193 26.6838C8.74136 27.0422 7.14818 28.0093 6.02019 29.4149C4.89219 30.8205 4.30166 32.5745 4.35252 34.3682L6.8258 84.3029C6.84348 85.1261 7.04367 85.9355 7.41224 86.674C7.7808 87.4124 8.30877 88.0618 8.95886 88.5763C9.60895 89.0909 10.3653 89.4581 11.1746 89.652C11.9839 89.8459 12.8263 89.8618 13.6425 89.6986L39.89 85.1212C41.2474 84.8558 42.6471 84.8871 43.991 85.213C45.3349 85.5389 46.5905 86.1514 47.6698 87.0076C48.7395 87.8862 49.6043 88.9832 50.2047 90.2235C50.8051 91.4637 51.127 92.8178 51.1483 94.1927L51.4896 102.941C51.4998 103.439 51.5561 103.936 51.6579 104.425C51.9929 104.009 52.2946 103.569 52.5603 103.107L60.5785 89.5691C63.5614 84.534 70.1817 79.8365 75.6566 78.884L140.7 67.5424C142.478 67.184 144.072 66.2169 145.2 64.8113C146.328 63.4057 146.918 61.6517 146.867 59.858V59.8719Z" fill="white"/>
<defs>
<linearGradient id="paint0_linear" x1="7.36808" y1="37.3504" x2="15.3062" y2="29.3187" gradientUnits="userSpaceOnUse">
<stop stop-color="#C2C2C2"/>
<stop offset="0.11" stop-color="#BDBDBD"/>
<stop offset="0.29" stop-color="#B8B8B8"/>
<stop offset="0.75" stop-color="#8A8A8A"/>
<stop offset="1" stop-color="#858585"/>
</linearGradient>
<linearGradient id="paint1_linear" x1="325.345" y1="12586.3" x2="325.345" y2="4561.89" gradientUnits="userSpaceOnUse">
<stop stop-color="#999999"/>
<stop offset="1" stop-color="#BFBFBF"/>
</linearGradient>
<linearGradient id="paint2_linear" x1="11.3796" y1="31.5109" x2="149.976" y2="6.80157" gradientUnits="userSpaceOnUse">
<stop stop-color="#878787"/>
<stop offset="1" stop-color="#BDBDBD"/>
</linearGradient>
<linearGradient id="paint3_linear" x1="7.22338" y1="97.7805" x2="48.4182" y2="90.4386" gradientUnits="userSpaceOnUse">
<stop stop-color="#666666"/>
<stop offset="0.01" stop-color="#696969"/>
<stop offset="0.04" stop-color="#767676"/>
<stop offset="0.09" stop-color="#7E7E7E"/>
<stop offset="0.19" stop-color="#808080"/>
<stop offset="0.81" stop-color="#808080"/>
<stop offset="1" stop-color="#666666"/>
</linearGradient>
<linearGradient id="paint4_linear" x1="58.6383" y1="107.49" x2="70.4231" y2="95.5736" gradientUnits="userSpaceOnUse">
<stop stop-color="#A5A5A5"/>
<stop offset="1" stop-color="#A7A7A7"/>
</linearGradient>
<linearGradient id="paint5_linear" x1="53.9156" y1="113.607" x2="60.3605" y2="107.09" gradientUnits="userSpaceOnUse">
<stop stop-color="#858585"/>
<stop offset="0.52" stop-color="#8F8F8F"/>
<stop offset="0.75" stop-color="#A3A3A3"/>
<stop offset="1" stop-color="#A8A8A8"/>
</linearGradient>
<linearGradient id="paint6_linear" x1="69.6815" y1="95.0896" x2="79.5152" y2="85.141" gradientUnits="userSpaceOnUse">
<stop stop-color="#A8A8A8"/>
<stop offset="0.21" stop-color="#A3A3A3"/>
<stop offset="0.82" stop-color="#858585"/>
</linearGradient>
<linearGradient id="paint7_linear" x1="150.434" y1="11.0144" x2="153.428" y2="2.69362" gradientUnits="userSpaceOnUse">
<stop stop-color="#C2C2C2"/>
<stop offset="0.25" stop-color="#BDBDBD"/>
<stop offset="0.48" stop-color="#A3A3A3"/>
<stop offset="0.88" stop-color="#8A8A8A"/>
<stop offset="1" stop-color="#858585"/>
</linearGradient>
<linearGradient id="paint8_linear" x1="76.5726" y1="87.2065" x2="148.954" y2="74.299" gradientUnits="userSpaceOnUse">
<stop stop-color="#858585"/>
<stop offset="1" stop-color="#878787"/>
</linearGradient>
<linearGradient id="paint9_linear" x1="154.352" y1="65.7162" x2="154.352" y2="9.19751" gradientUnits="userSpaceOnUse">
<stop stop-color="#C1C1C1"/>
<stop offset="1" stop-color="#C1C1C1"/>
</linearGradient>
<linearGradient id="paint10_linear" x1="144.87" y1="75.8324" x2="157.4" y2="63.1583" gradientUnits="userSpaceOnUse">
<stop stop-color="#858585"/>
<stop offset="0.12" stop-color="#8A8A8A"/>
<stop offset="0.52" stop-color="#A3A3A3"/>
<stop offset="0.75" stop-color="#BDBDBD"/>
<stop offset="1" stop-color="#C2C2C2"/>
</linearGradient>
<linearGradient id="paint11_linear" x1="1126.17" y1="4040.29" x2="1368.59" y2="4040.29" gradientUnits="userSpaceOnUse">
<stop stop-color="#C2C2C2"/>
<stop offset="0.25" stop-color="#BDBDBD"/>
<stop offset="0.48" stop-color="#A3A3A3"/>
<stop offset="0.88" stop-color="#8A8A8A"/>
<stop offset="1" stop-color="#858585"/>
</linearGradient>
</defs>
</svg>
