<svg width="44" height="44" viewBox="0 0 44 44" fill="none" xmlns="http://www.w3.org/2000/svg">
<path d="M43.8208 18.6701L36.4563 8.97443C36.1837 8.61584 35.6866 8.52738 35.3096 8.7703L30.5548 11.835H24.3536C24.2733 11.835 24.1935 11.8524 24.1162 11.8752L19.3081 13.2779L14.319 11.8949L9.4713 8.7703C9.10069 8.53146 8.61259 8.61243 8.33699 8.95878L0.191395 19.1845C-0.10133 19.552 -0.0529898 20.0885 0.300159 20.3964L4.56951 24.1201L8.39976 29.3514C7.27956 30.5609 7.30138 32.4685 8.4669 33.6501C8.98353 34.1734 9.64049 34.469 10.3162 34.5378C10.2927 34.6929 10.2807 34.8504 10.2807 35.0103C10.2807 35.8357 10.5979 36.6118 11.1736 37.1952C11.7496 37.7791 12.5154 38.1006 13.3298 38.1006C13.3408 38.1006 13.3516 38.0999 13.3623 38.0996C13.362 38.1207 13.361 38.1414 13.361 38.1625C13.361 38.9879 13.6782 39.7639 14.2539 40.3477C14.83 40.9312 15.5957 41.2527 16.4101 41.2527C16.5709 41.2527 16.73 41.2395 16.8861 41.215C16.9522 41.9022 17.2446 42.5711 17.7629 43.0964C18.3571 43.6989 19.1379 44 19.9187 44C20.6996 44 21.4804 43.6989 22.0749 43.0964L22.5412 42.6238L22.7369 42.7837C23.3264 43.3625 24.0917 43.6517 24.8571 43.6517C25.6379 43.6517 26.4188 43.3506 27.0129 42.748C27.6195 42.1332 27.9166 41.3218 27.9042 40.5145C28.7005 40.5267 29.5014 40.226 30.108 39.6115C30.714 38.9971 31.011 38.1863 30.9993 37.3793C31.8288 37.3926 32.6157 37.0697 33.2028 36.4747C33.8094 35.8599 34.1065 35.0484 34.0941 34.2411C34.891 34.2533 35.6913 33.9526 36.2979 33.3378C37.3332 32.2885 37.4664 30.6667 36.6987 29.4695L39.4954 23.5333L43.6999 19.8663C44.0474 19.5632 44.1004 19.0379 43.8208 18.6701ZM9.19536 10.665L12.6812 12.9115L5.09822 22.2744L2.05953 19.6237L9.19536 10.665ZM9.68715 30.5163L10.7392 29.4501C10.7711 29.4177 10.8047 29.3871 10.8389 29.3585C11.0447 29.1884 11.2938 29.087 11.5576 29.0629C11.565 29.0622 11.5727 29.0622 11.5801 29.0619C11.6177 29.0588 11.6553 29.0568 11.6932 29.0571C12.0538 29.0622 12.3888 29.2116 12.6372 29.4773C13.1246 29.9995 13.0985 30.8528 12.5788 31.3795L11.5586 32.4134C11.0427 32.9363 10.2031 32.9363 9.68715 32.4134C9.17119 31.8901 9.17119 31.0392 9.68715 30.5163ZM12.3938 35.9585C12.1438 35.7054 12.0061 35.3686 12.0061 35.0103C12.0061 34.6521 12.1438 34.3153 12.3938 34.0618L14.4338 31.9943C14.8246 31.5982 15.4389 31.4897 15.9384 31.7309C16.4534 31.9796 16.7431 32.5461 16.6676 33.116C16.6273 33.4201 16.4876 33.7066 16.2734 33.924L14.2657 35.9585C14.0156 36.212 13.6832 36.3515 13.3298 36.3515C12.9763 36.3515 12.6439 36.212 12.3938 35.9585ZM15.4742 39.1107C15.2241 38.8576 15.0864 38.5208 15.0864 38.1625C15.0864 37.8042 15.2241 37.4674 15.4742 37.214L17.5138 35.1464C17.9318 34.7232 18.6021 34.632 19.1137 34.9338C19.581 35.2094 19.8258 35.7503 19.7455 36.2892C19.7015 36.5856 19.5626 36.8642 19.3534 37.0762L17.346 39.1107C17.0959 39.3642 16.7636 39.5037 16.4101 39.5037C16.0566 39.5037 15.7243 39.3642 15.4742 39.1107ZM18.9828 41.8597C18.4669 41.3368 18.4669 40.4859 18.9828 39.963L20.0349 38.8967C20.0668 38.8644 20.1 38.8341 20.1343 38.8055C20.1353 38.8048 20.1359 38.8042 20.1366 38.8035C20.3078 38.6626 20.5089 38.5684 20.7234 38.5272C20.7284 38.5265 20.7335 38.5259 20.7385 38.5252C20.7754 38.5184 20.813 38.5129 20.8506 38.5095C20.8657 38.5082 20.8808 38.5082 20.8963 38.5071C20.9272 38.5054 20.9577 38.5034 20.9889 38.5037C21.3491 38.5088 21.6845 38.6579 21.9329 38.9239C21.9634 38.9566 21.992 38.9906 22.0182 39.0256C22.415 39.5513 22.3616 40.3321 21.8691 40.8315L20.8543 41.86C20.3384 42.383 19.4988 42.3826 18.9828 41.8597ZM35.0776 32.1011C34.5617 32.6243 33.7221 32.624 33.2061 32.1011C33.1873 32.082 33.1675 32.0643 33.1474 32.0477L27.5997 26.3659C27.2644 26.0227 26.7182 26.0199 26.3795 26.3598C26.0408 26.6994 26.0381 27.2529 26.3731 27.5962L31.9809 33.3388C31.9815 33.3395 31.9822 33.3402 31.9829 33.3409C32.4988 33.8638 32.4988 34.715 31.9829 35.2379C31.7328 35.4914 31.4005 35.6309 31.047 35.6309C30.6931 35.6309 30.3608 35.4914 30.1111 35.2379L26.3597 31.3965C26.0247 31.0532 25.4785 31.0505 25.1398 31.39C24.8011 31.7299 24.7984 32.2834 25.1334 32.6267L28.8274 36.4093C28.8462 36.4331 28.8663 36.4559 28.8878 36.4777C29.4037 37.0006 29.4037 37.8519 28.8878 38.3748C28.3715 38.8977 27.5316 38.8974 27.0156 38.3745L24.9682 36.2777C24.6329 35.9344 24.0867 35.9313 23.748 36.2712C23.4093 36.6107 23.4066 37.1643 23.7416 37.5076L25.7319 39.5455C25.7507 39.5693 25.7709 39.5925 25.7927 39.6142C26.3087 40.1372 26.3087 40.9884 25.7927 41.5113C25.2767 42.0346 24.4372 42.0342 23.9212 41.5113C23.8618 41.4511 23.792 41.4048 23.7255 41.3531C23.6691 41.3096 23.6543 41.2793 23.6825 41.2099C23.7111 41.1395 23.7537 41.0758 23.7822 41.0051C23.8138 40.9261 23.8393 40.8448 23.8641 40.7632C23.9964 40.3311 24.0353 39.8663 23.9759 39.4179C23.8618 38.5575 23.3948 37.7811 22.6872 37.2898C22.3048 37.0248 21.8624 36.8509 21.4038 36.7856C21.6261 35.7922 21.3592 34.715 20.665 33.9716C20.0936 33.3599 19.3219 33.0166 18.4917 33.0051C18.4615 33.0047 18.4313 33.0047 18.4007 33.0051C18.4192 32.2021 18.1312 31.4043 17.585 30.8195C17.0133 30.2077 16.2416 29.8645 15.4117 29.8529C15.165 29.8495 14.9159 29.876 14.6755 29.9322C14.5728 29.2078 14.2126 28.5376 13.6671 28.0582C13.125 27.5826 12.4432 27.3186 11.7171 27.3084C10.9527 27.2971 10.2018 27.5829 9.63411 28.1024L6.299 23.5479L14.2778 13.6964L16.8206 14.4013L13.4996 20.3406C13.0981 21.0588 12.9967 21.8924 13.2139 22.6878C13.4311 23.4836 13.9407 24.1457 14.6494 24.5526C14.6937 24.5781 14.7383 24.6022 14.7836 24.6254C14.787 24.6271 14.7904 24.6288 14.794 24.6305C14.9132 24.6907 15.0357 24.7424 15.16 24.786C15.7384 24.9891 16.3631 25.0112 16.9656 24.8424C17.7505 24.6223 18.4038 24.1055 18.8052 23.3876L20.9634 19.5278L24.8168 19.8047L35.078 30.204C35.5936 30.7273 35.5936 31.5782 35.0776 32.1011ZM35.4351 28.0929L25.8091 18.3374C25.791 18.3187 25.7719 18.301 25.7521 18.2843C25.6134 18.1673 25.4416 18.0965 25.2603 18.0836L20.5421 17.7444C20.2158 17.7216 19.8915 17.8975 19.7304 18.1856L17.304 22.5255C17.1298 22.8372 16.8461 23.0614 16.5054 23.157C16.165 23.2526 15.8078 23.2077 15.5 23.0311C15.1925 22.8545 14.9713 22.567 14.877 22.2217C14.7826 21.8764 14.8266 21.5144 15.0012 21.2027L18.2403 15.4091L19.5528 15.0263C19.5616 15.0236 19.57 15.0202 19.5787 15.0175L24.4775 13.5838H30.3964L37.7857 23.1039L35.4351 28.0929ZM38.916 21.7314L32.0826 12.9227L35.5701 10.6749L41.9553 19.0808L38.916 21.7314Z" fill="#489D96"/>
<path d="M26.6564 10.1937C26.8773 10.1937 27.0982 10.1083 27.2667 9.93753L33.1602 3.96458C33.4972 3.62299 33.4972 3.06945 33.1602 2.72787C32.8231 2.38628 32.2769 2.38628 31.9399 2.72787L26.0465 8.70082C25.7094 9.0424 25.7094 9.59595 26.0465 9.93753C26.215 10.1083 26.4359 10.1937 26.6564 10.1937Z" fill="#489D96"/>
<path d="M16.7331 9.93753C16.9016 10.1083 17.1225 10.1937 17.3434 10.1937C17.564 10.1937 17.7848 10.1083 17.9534 9.93753C18.2904 9.59595 18.2904 9.0424 17.9534 8.70082L12.0599 2.72787C11.7229 2.38628 11.1767 2.38628 10.8397 2.72787C10.5027 3.06945 10.5027 3.62299 10.8397 3.96458L16.7331 9.93753Z" fill="#489D96"/>
<path d="M22.0002 10.1938C22.4765 10.1938 22.8629 9.8022 22.8629 9.31942V4.37633C22.8629 3.89355 22.4765 3.50195 22.0002 3.50195C21.5238 3.50195 21.1375 3.89355 21.1375 4.37633V9.31942C21.1375 9.8022 21.5238 10.1938 22.0002 10.1938Z" fill="#489D96"/>
<path d="M21.2039 1.20664C21.3409 1.54318 21.6823 1.76403 22.0425 1.74497C22.3983 1.72625 22.7109 1.48261 22.821 1.13926C22.9314 0.793195 22.8112 0.398805 22.5252 0.178301C22.2335 -0.0469668 21.8266 -0.0595574 21.5215 0.144953C21.1811 0.372944 21.0492 0.826883 21.2039 1.20664Z" fill="#489D96"/>
</svg>
