<svg width="40" height="46" viewBox="0 0 40 46" fill="none" xmlns="http://www.w3.org/2000/svg">
<path d="M39.2307 19.038H27.1206C26.7182 18.5069 26.2935 17.9898 25.8519 17.4952L23.7214 15.109C21.7734 12.9311 20.2554 10.4029 19.2481 7.65847L18.9451 4.75404C18.9235 4.54371 18.8585 4.34015 18.7544 4.15621L16.8523 0.784141C16.6739 0.465843 16.3882 0.221572 16.0463 0.0951152C15.7044 -0.0313413 15.3287 -0.0317153 14.9865 0.0940606L13.3199 0.701578C12.9771 0.825463 12.6895 1.06756 12.5088 1.38449C12.328 1.70141 12.2659 2.07244 12.3335 2.43108L13.0408 6.23877C13.0792 6.44664 13.1601 6.64431 13.2784 6.81935L14.9107 9.2394C15.9005 11.9903 16.3605 14.9042 16.2662 17.8267L16.161 21.2254C16.1591 21.2456 16.1581 21.266 16.1578 21.2866L16.157 21.3568V21.3596L16.157 21.3598V21.3611C16.1558 21.5598 16.2313 21.7512 16.3677 21.8955C16.5042 22.0397 16.691 22.1256 16.8892 22.1352C16.9015 22.1358 16.9139 22.1361 16.9262 22.136C16.9294 22.136 16.9326 22.136 16.9357 22.136C17.0157 22.1351 17.095 22.1217 17.1709 22.0963L19.4563 21.3864C19.756 21.7617 20.1652 22.034 20.6267 22.1654C21.0883 22.2968 21.5793 22.2808 22.0314 22.1196C22.4834 21.9584 22.874 21.66 23.1487 21.266C23.4235 20.872 23.5686 20.402 23.564 19.9214L25.344 19.2727C25.624 19.6144 25.8939 19.9635 26.1537 20.3201V22.8897H18.4614V24.4304H26.1537V25.9711H18.4614V27.5118H26.1537V35.9855C26.1537 36.0867 26.1736 36.1868 26.2123 36.2803C26.2509 36.3738 26.3076 36.4587 26.379 36.5302C26.4504 36.6018 26.5352 36.6585 26.6286 36.6972C26.7219 36.7359 26.8219 36.7558 26.9229 36.7558H36.1141L35.2899 41.3779H24.6152V42.9186H35.0152L34.7405 44.4592H19.8746L19.5999 42.9186H23.0768V41.3779H19.3252L18.0648 34.3094L16.5503 34.5802L18.4733 45.365C18.5051 45.543 18.5983 45.7041 18.7368 45.8202C18.8752 45.9363 19.05 45.9999 19.2306 45.9999H35.3845C35.5651 45.9999 35.7399 45.9363 35.8783 45.8202C36.0168 45.7042 36.11 45.543 36.1418 45.365L37.6769 36.7558H39.2307C39.3317 36.7558 39.4317 36.7359 39.525 36.6972C39.6184 36.6585 39.7032 36.6018 39.7746 36.5302C39.846 36.4587 39.9027 36.3738 39.9414 36.2803C39.98 36.1868 39.9999 36.0867 39.9999 35.9855V19.8084C39.9999 19.7072 39.98 19.607 39.9414 19.5136C39.9027 19.4201 39.846 19.3352 39.7746 19.2637C39.7032 19.1921 39.6184 19.1354 39.525 19.0967C39.4317 19.058 39.3317 19.038 39.2307 19.038ZM15.9028 7.95788L14.5534 5.95703L13.8461 2.14934L15.5127 1.54187L17.047 4.2617L15.7318 4.74111L16.258 6.18887L17.5007 5.7359L17.6655 7.31542L15.9028 7.95788ZM21.5199 20.6665C21.3769 20.7187 21.2217 20.7272 21.0739 20.6909C20.9261 20.6547 20.7924 20.5754 20.6896 20.4631C20.5868 20.3508 20.5196 20.2105 20.4964 20.0599C20.4733 19.9093 20.4952 19.7552 20.5595 19.6171C20.6238 19.479 20.7276 19.3631 20.8576 19.2841C20.9877 19.205 21.1383 19.1664 21.2903 19.173C21.4423 19.1796 21.5889 19.2313 21.7116 19.3214C21.8343 19.4115 21.9275 19.536 21.9796 19.6791C22.0492 19.8711 22.0398 20.0829 21.9536 20.2681C21.8674 20.4532 21.7114 20.5965 21.5199 20.6665V20.6665ZM23.0378 18.4737C22.7361 18.1072 22.3289 17.8427 21.8718 17.7162C21.4146 17.5897 20.9297 17.6072 20.4828 17.7665C20.036 17.9257 19.649 18.2189 19.3744 18.6062C19.0998 18.9935 18.951 19.4561 18.9483 19.9311L17.7285 20.31L17.8039 17.8748C17.8968 14.9838 17.4808 12.099 16.575 9.35242L18.0456 8.81642C19.1147 11.5035 20.6477 13.9812 22.5745 16.136L24.263 18.0271L23.0378 18.4737ZM38.4614 35.2152H27.6922V20.5787H38.4614V35.2152Z" fill="#489D96"/>
<path d="M12.3077 41.4555V35.9298C13.5885 35.743 14.7594 35.1012 15.6068 34.1214C16.4541 33.1417 16.9213 31.8894 16.9231 30.5933V23.6602C16.9231 23.5591 16.9032 23.4589 16.8645 23.3654C16.8259 23.272 16.7692 23.187 16.6978 23.1155C16.6264 23.044 16.5416 22.9872 16.4482 22.9485C16.3549 22.9098 16.2549 22.8899 16.1538 22.8899H6.92304C6.82202 22.8899 6.722 22.9098 6.62867 22.9485C6.53534 22.9872 6.45054 23.044 6.37911 23.1155C6.30767 23.187 6.25101 23.272 6.21236 23.3654C6.1737 23.4589 6.15381 23.5591 6.15381 23.6602V30.5933C6.15554 31.8894 6.62274 33.1417 7.4701 34.1214C8.31746 35.1012 9.48844 35.743 10.7692 35.9298V41.4555C9.90111 41.6342 9.12107 42.1072 8.56058 42.7947C8.00009 43.4822 7.69342 44.3422 7.69228 45.2297C7.69227 45.3309 7.71217 45.4311 7.75082 45.5245C7.78948 45.618 7.84614 45.7029 7.91757 45.7745C7.989 45.846 8.0738 45.9027 8.16713 45.9414C8.26046 45.9802 8.36049 46.0001 8.46151 46.0001H14.6154C14.7164 46.0001 14.8164 45.9802 14.9098 45.9414C15.0031 45.9027 15.0879 45.846 15.1593 45.7745C15.2307 45.7029 15.2874 45.618 15.3261 45.5245C15.3647 45.4311 15.3846 45.3309 15.3846 45.2297C15.3835 44.3422 15.0768 43.4822 14.5163 42.7947C13.9558 42.1072 13.1758 41.6342 12.3077 41.4555ZM15.3846 24.4306V27.5119H14.1648C13.9208 27.5126 13.6791 27.4648 13.4537 27.3713C13.2283 27.2778 13.0236 27.1405 12.8516 26.9672C12.537 26.6505 12.1629 26.3994 11.7507 26.2284C11.3386 26.0574 10.8967 25.97 10.4506 25.9712H7.69228V24.4306H15.3846ZM7.69228 30.5933V27.5119H10.4506C10.6946 27.5113 10.9363 27.5591 11.1617 27.6526C11.3871 27.7461 11.5917 27.8834 11.7638 28.0566C12.0783 28.3734 12.4525 28.6245 12.8646 28.7955C13.2768 28.9664 13.7187 29.0538 14.1648 29.0526H15.3846V30.5933C15.3846 31.6148 14.9794 32.5945 14.2581 33.3168C13.5368 34.0392 12.5585 34.445 11.5384 34.445C10.5184 34.445 9.54009 34.0392 8.81879 33.3168C8.0975 32.5945 7.69228 31.6148 7.69228 30.5933ZM9.36258 44.4594C9.52169 44.0088 9.81636 43.6187 10.206 43.3428C10.5957 43.0669 11.0612 42.9187 11.5384 42.9187C12.0157 42.9187 12.4812 43.0669 12.8709 43.3428C13.2605 43.6187 13.5552 44.0088 13.7143 44.4594H9.36258Z" fill="#489D96"/>
<path d="M6.15387 35.2153C6.15387 35.1142 6.13398 35.014 6.09532 34.9205C6.05666 34.8271 6 34.7421 5.92857 34.6706C5.85714 34.5991 5.77234 34.5423 5.67901 34.5036C5.58568 34.4649 5.48565 34.445 5.38464 34.445C4.36492 34.4438 3.3873 34.0377 2.66625 33.3156C1.94521 32.5935 1.53962 31.6145 1.53847 30.5933V27.5119H2.75833C3.0023 27.5113 3.24399 27.5591 3.46939 27.6526C3.69479 27.7461 3.89944 27.8834 4.07148 28.0566L5.15932 26.9672C4.84476 26.6505 4.47058 26.3994 4.05845 26.2284C3.64632 26.0574 3.20442 25.97 2.75833 25.9712H1.53847V24.4306H4.6154V22.8899H0.769234C0.668216 22.8899 0.568186 22.9098 0.474857 22.9485C0.381528 22.9872 0.296727 23.044 0.225297 23.1155C0.153866 23.187 0.0972051 23.272 0.0585485 23.3654C0.0198919 23.4589 -2.90408e-06 23.5591 3.17958e-10 23.6602V30.5933C0.00164606 31.8896 0.468793 33.142 1.31614 34.1219C2.16349 35.1018 3.33452 35.7439 4.6154 35.9308V41.4555C3.7473 41.6342 2.96726 42.1072 2.40677 42.7947C1.84628 43.4822 1.53962 44.3422 1.53847 45.2297C1.53846 45.3309 1.55836 45.4311 1.59702 45.5245C1.63567 45.618 1.69233 45.7029 1.76376 45.7745C1.83519 45.846 1.92 45.9027 2.01332 45.9414C2.10665 45.9802 2.20668 46.0001 2.3077 46.0001H6.15387V44.4594H3.20877C3.32178 44.1396 3.50366 43.8487 3.7415 43.6072C3.97935 43.3657 4.26733 43.1796 4.58503 43.0621C4.90273 42.9445 5.24237 42.8984 5.57987 42.9269C5.91736 42.9555 6.24445 43.0581 6.53792 43.2274L7.30828 41.8938C6.94961 41.6865 6.55975 41.5387 6.15387 41.4562V35.2153Z" fill="#489D96"/>
</svg>
