<svg width="50" height="50" viewBox="0 0 50 50" fill="none" xmlns="http://www.w3.org/2000/svg">
<rect opacity="0.15" width="50" height="50" rx="5" fill="#889993"/>
<path d="M24.9531 35.2858C25.8074 35.2858 26.5 34.5639 26.5 33.6733C26.5 32.7827 25.8074 32.0608 24.9531 32.0608C24.0988 32.0608 23.4062 32.7827 23.4062 33.6733C23.4062 34.5639 24.0988 35.2858 24.9531 35.2858Z" fill="#489D96"/>
<path d="M36.7483 20.0583C33.6672 16.6123 29.495 14.7144 24.9998 14.7144C20.505 14.7144 16.3328 16.6123 13.2517 20.0583C12.8987 20.4531 12.9195 21.0715 13.2983 21.4395C13.6771 21.8075 14.2703 21.7858 14.6233 21.3909C17.3458 18.3459 21.0309 16.669 25.0002 16.6689C28.9691 16.669 32.6542 18.3459 35.3767 21.3909C35.5613 21.5974 35.8117 21.7019 36.0627 21.7019C36.2916 21.7019 36.521 21.615 36.7017 21.4395C37.0804 21.0715 37.1013 20.4531 36.7483 20.0583Z" fill="#489D96"/>
<path d="M33.306 24.0941C31.0285 21.702 28.0787 20.3847 25 20.3848C21.9205 20.3848 18.9707 21.7022 16.6939 24.0942C16.3292 24.4773 16.3315 25.0961 16.699 25.4762C17.0666 25.8564 17.6602 25.854 18.0249 25.4708C19.947 23.4515 22.4241 22.3394 25 22.3393C27.5752 22.3392 30.0524 23.4514 31.9752 25.4709C32.1584 25.6634 32.3995 25.7598 32.6406 25.7598C32.8793 25.7598 33.1182 25.6653 33.3011 25.4761C33.6685 25.0959 33.6708 24.4771 33.306 24.0941Z" fill="#489D96"/>
<path d="M29.5538 28.142C28.3341 26.8823 26.5858 26.0999 24.991 26.0999C24.9909 26.0999 24.9905 26.0999 24.9903 26.0999H24.9228C24.9225 26.0999 24.9224 26.0999 24.9221 26.0999C23.3273 26.0999 21.5788 26.8824 20.3592 28.142C19.9914 28.5218 19.9886 29.1406 20.3531 29.524C20.5364 29.7169 20.7777 29.8135 21.0191 29.8135C21.2575 29.8135 21.4961 29.7192 21.6788 29.5305C22.5471 28.6337 23.8201 28.0544 24.9222 28.0544C24.9223 28.0544 24.9225 28.0544 24.9227 28.0544H24.9905C24.9907 28.0544 24.9907 28.0544 24.9909 28.0544C26.0929 28.0544 27.366 28.6338 28.2341 29.5305C28.6019 29.9103 29.1956 29.9076 29.5599 29.524C29.9244 29.1406 29.9216 28.5218 29.5538 28.142Z" fill="#489D96"/>
</svg>
