<svg width="50" height="50" viewBox="0 0 50 50" fill="none" xmlns="http://www.w3.org/2000/svg">
<rect opacity="0.15" width="50" height="50" rx="5" fill="#889993"/>
<path d="M16.1257 33.0131C15.6881 32.572 15.1062 32.3291 14.4873 32.3291C14.1217 32.3291 13.7693 32.4145 13.4516 32.5748C10.3299 28.1176 10.3191 22.0097 13.4781 17.5417C13.6533 17.2938 13.596 16.9496 13.35 16.773C13.104 16.5964 12.7625 16.6541 12.5872 16.902C10.8447 19.3666 9.95079 22.277 10.0021 25.3186C10.0509 28.213 10.9527 30.9588 12.6142 33.2897C11.954 34.2023 12.0322 35.4921 12.8489 36.3153C13.3007 36.7705 13.894 36.9981 14.4873 36.9981C15.0807 36.9981 15.674 36.7705 16.1257 36.3153C17.0291 35.4049 17.0291 33.9235 16.1257 33.0131ZM15.3523 35.5359C14.8752 36.0165 14.0993 36.0165 13.6223 35.5359C13.1453 35.0552 13.1453 34.2731 13.6223 33.7924C13.8534 33.5596 14.1606 33.4313 14.4873 33.4313C14.814 33.4313 15.1212 33.5596 15.3522 33.7924C15.8293 34.2731 15.8293 35.0552 15.3523 35.5359Z" fill="#489D96"/>
<path d="M32.3106 35.7552C32.1339 35.5085 31.7921 35.453 31.5471 35.6313C29.9837 36.7697 28.2262 37.524 26.3234 37.873C25.8825 37.9539 25.4328 37.8348 25.0898 37.5463C24.7492 37.26 24.5539 36.8392 24.5539 36.3921V32.3524H24.6016C25.2349 32.3524 25.7501 31.8333 25.7501 31.195V30.2646C27.6025 29.552 28.922 27.7428 28.922 25.6287V23.0193C29.8033 22.7767 30.4532 21.9632 30.4532 20.9992C30.4532 19.9379 29.6656 19.059 28.6485 18.9236V15.4879C28.6485 14.5762 27.9125 13.8345 27.0079 13.8345C26.1032 13.8345 25.3673 14.5762 25.3673 15.4879V18.9049H22.6329V15.4879C22.6329 14.5762 21.8969 13.8345 20.9922 13.8345C20.0876 13.8345 19.3516 14.5762 19.3516 15.4879V18.9236C18.3345 19.059 17.5469 19.9378 17.5469 20.9992C17.5469 21.9632 18.1968 22.7767 19.0781 23.0193V25.6287C19.0781 27.7428 20.3976 29.552 22.25 30.2646V31.1951C22.25 31.8333 22.7653 32.3525 23.3985 32.3525H23.4601V36.3922C23.4601 37.1672 23.7987 37.8963 24.389 38.3927C24.8601 38.7889 25.4473 39.0002 26.0504 39.0002C26.2062 39.0002 26.363 38.9861 26.5192 38.9574C28.5838 38.5787 30.4909 37.7602 32.1876 36.5247C32.4324 36.3464 32.4874 36.0019 32.3106 35.7552ZM26.4611 15.4879C26.4611 15.184 26.7064 14.9367 27.008 14.9367C27.3095 14.9367 27.5548 15.184 27.5548 15.4879V18.9049H26.4611V15.4879ZM20.4454 15.4879C20.4454 15.184 20.6907 14.9367 20.9923 14.9367C21.2938 14.9367 21.5392 15.184 21.5392 15.4879V18.9049H20.4454V15.4879ZM18.6407 20.9992C18.6407 20.4522 19.0823 20.0071 19.6251 20.0071H28.3752C28.9179 20.0071 29.3595 20.4522 29.3595 20.9992C29.3595 21.5462 28.9179 21.9912 28.3752 21.9912H19.6251C19.0823 21.9912 18.6407 21.5462 18.6407 20.9992ZM20.172 25.6287V23.0935H27.8283V25.6287C27.8283 27.7559 26.111 29.4866 24.0001 29.4866C21.8893 29.4866 20.172 27.7559 20.172 25.6287ZM24.0208 31.2502C24.0162 31.2501 24.0117 31.2495 24.0071 31.2495C24.0025 31.2495 23.998 31.2501 23.9934 31.2502H23.3987C23.3684 31.2502 23.3439 31.2255 23.3439 31.1951V30.5447C23.5586 30.5736 23.7776 30.5889 24.0001 30.5889C24.2226 30.5889 24.4416 30.5736 24.6564 30.5447V31.1951C24.6564 31.2255 24.6319 31.2502 24.6017 31.2502H24.0208Z" fill="#489D96"/>
<path d="M33.886 34.2615C33.6693 34.0576 33.3316 34.0655 33.1244 34.2766C33.1201 34.2809 33.1159 34.2853 33.1119 34.2895C32.9058 34.5121 32.9178 34.8608 33.1386 35.0685C33.244 35.1677 33.3779 35.2167 33.5116 35.2167C33.6529 35.2167 33.7938 35.1619 33.9003 35.0534C33.9045 35.0491 33.9087 35.0447 33.9127 35.0405C34.1188 34.8179 34.1068 34.4692 33.886 34.2615Z" fill="#489D96"/>
<path d="M37.9631 24.0473C37.7194 20.6734 36.2764 17.4962 33.8999 15.1011C31.5641 12.747 28.4438 11.306 25.1139 11.0437C21.8246 10.7845 18.5509 11.6841 15.8948 13.5764C15.6482 13.7521 15.5896 14.0961 15.7639 14.3446C15.9382 14.5931 16.2796 14.6522 16.5262 14.4765C21.6052 10.8579 28.7418 11.4615 33.1265 15.8806C37.6578 20.4473 38.2057 27.539 34.4292 32.743C34.2509 32.9886 34.304 33.3334 34.5478 33.5132C34.6452 33.5849 34.7582 33.6195 34.8703 33.6195C35.0388 33.6195 35.205 33.5413 35.3122 33.3936C37.2628 30.7055 38.2043 27.3863 37.9631 24.0473Z" fill="#489D96"/>
<path d="M14.8075 15.1648C14.593 14.9506 14.2467 14.952 14.0341 15.1683L14.0251 15.1775C13.8125 15.3936 13.8141 15.7426 14.0286 15.9569C14.1352 16.0633 14.2744 16.1165 14.4136 16.1165C14.5543 16.1165 14.6951 16.0621 14.802 15.9534L14.811 15.9442C15.0236 15.7281 15.022 15.3791 14.8075 15.1648Z" fill="#489D96"/>
<path d="M25.2333 25.4244C25.1353 25.255 24.9554 25.1508 24.7608 25.1508H24.37L25.0898 24.2345C25.2772 23.9959 25.2372 23.6492 25.0004 23.4604C24.7636 23.2714 24.4196 23.3118 24.2322 23.5504L22.8107 25.3599C22.6806 25.5256 22.6559 25.7517 22.7472 25.942C22.8385 26.1322 23.0298 26.2531 23.2395 26.2531H23.8225L23.1528 27.4448C23.0039 27.7096 23.0963 28.0459 23.3591 28.1959C23.4443 28.2445 23.5367 28.2676 23.6281 28.2676C23.8188 28.2675 24.0039 28.167 24.1046 27.988L25.2367 25.9736C25.3326 25.8029 25.3313 25.5938 25.2333 25.4244Z" fill="#489D96"/>
</svg>
