<svg width="50" height="50" viewBox="0 0 50 50" fill="none" xmlns="http://www.w3.org/2000/svg">
<rect opacity="0.15" width="50" height="50" rx="5" fill="#889993"/>
<path d="M31.5 24H31V23H31.5C32.3284 23 33 22.3284 33 21.5V12.908C33.7796 12.6334 34.1889 11.7789 33.9143 10.9993C33.7031 10.3996 33.1359 9.99882 32.5 10H17.5C16.6735 9.99844 16.0023 10.6672 16.0007 11.4937C15.9994 12.1296 16.4003 12.6968 17 12.908V21.5C17 22.3284 17.6716 23 18.5 23H19V24H18.5C17.12 24.0016 16.0016 25.12 16 26.5C16 26.7761 16.2239 27 16.5 27C16.4902 30.3412 18.45 33.3744 21.5 34.7385V39.5C21.5 39.7761 21.7239 40 22 40H28C28.2761 40 28.5 39.7761 28.5 39.5V34.7385C31.5496 33.3739 33.5092 30.341 33.5 27C33.7761 27 34 26.7761 34 26.5C33.9984 25.12 32.88 24.0016 31.5 24ZM17 11.5C17 11.2239 17.2239 11 17.5 11H32.5C32.7761 11 33 11.2239 33 11.5C33 11.7761 32.7761 12 32.5 12H17.5C17.2239 12 17 11.7761 17 11.5ZM18.5 22C18.2239 22 18 21.7761 18 21.5V13H32V21.5C32 21.7761 31.7761 22 31.5 22H18.5ZM30 23V24H20V23H30ZM22.5 39V35.126L22.5465 35.1385C22.5965 35.1535 22.6465 35.165 22.6965 35.179C22.8795 35.231 23.0643 35.2767 23.251 35.316C23.3405 35.335 23.4305 35.3505 23.5205 35.366C23.675 35.393 23.8305 35.416 23.987 35.4335C24.082 35.445 24.176 35.457 24.272 35.465C24.4757 35.482 24.6798 35.4917 24.8845 35.494C24.9225 35.494 24.9595 35.4995 24.9975 35.4995C25.0355 35.4995 25.073 35.4945 25.111 35.494C25.3157 35.4917 25.5197 35.482 25.723 35.465C25.819 35.457 25.914 35.4445 26.0095 35.4335C26.1645 35.415 26.3185 35.393 26.472 35.3665C26.5635 35.3505 26.655 35.334 26.746 35.3165C26.928 35.279 27.1075 35.2335 27.2855 35.1835C27.341 35.168 27.3975 35.1555 27.453 35.139C27.4675 35.1345 27.483 35.1315 27.4975 35.127L27.5 39H22.5ZM27.81 33.9525C26.4642 34.4952 24.9902 34.6373 23.5655 34.3615C23.0935 34.2707 22.6318 34.1332 22.187 33.951C19.3478 32.8134 17.4902 30.0586 17.5 27H32.5C32.5095 30.0598 30.6506 32.8154 27.81 33.9525ZM17.0855 26C17.2982 25.4011 17.8645 25.0008 18.5 25H31.5C32.1355 25.0008 32.7018 25.4011 32.9145 26H17.0855Z" fill="#489D96"/>
<path d="M23 14.4999H21.408C21.1319 13.7189 20.2748 13.3095 19.4938 13.5857C18.7128 13.8619 18.3035 14.7189 18.5796 15.4999C18.8557 16.281 19.7128 16.6903 20.4938 16.4141C20.921 16.2631 21.257 15.927 21.408 15.4999H23C23.2761 15.4999 23.5 15.276 23.5 14.9999C23.5 14.7238 23.2761 14.4999 23 14.4999ZM20 15.4999C19.7239 15.4999 19.5 15.276 19.5 14.9999C19.5 14.7238 19.7239 14.4999 20 14.4999C20.2761 14.4999 20.5 14.7238 20.5 14.9999C20.5 15.276 20.2761 15.4999 20 15.4999Z" fill="#489D96"/>
</svg>
