<svg width="12" height="12" viewBox="0 0 12 12" fill="none" xmlns="http://www.w3.org/2000/svg">
<path d="M10.945 9.65997C11.305 10.02 11.305 10.58 10.945 10.94C10.765 11.12 10.545 11.2 10.305 11.2C10.065 11.2 9.84505 11.12 9.66505 10.94L6.00504 7.27998L2.34503 10.94C2.16503 11.12 1.94504 11.2 1.70504 11.2C1.46504 11.2 1.24505 11.12 1.06505 10.94C0.705054 10.58 0.705054 10.02 1.06505 9.65997L4.72504 5.99998L1.06505 2.33998C0.705054 1.97998 0.705054 1.41998 1.06505 1.05998C1.42505 0.699976 1.98503 0.699976 2.34503 1.05998L6.00504 4.71997L9.66505 1.05998C10.0251 0.699976 10.585 0.699976 10.945 1.05998C11.305 1.41998 11.305 1.97998 10.945 2.33998L7.28502 5.99998L10.945 9.65997Z" fill="#889993"/>
</svg>
