<svg width="60" height="60" viewBox="0 0 60 60" fill="none" xmlns="http://www.w3.org/2000/svg">
<path d="M17.9737 23.8175C17.6958 23.8175 17.4283 23.8628 17.1776 23.9452V23.0296C17.1776 21.6214 16.032 20.4758 14.6238 20.4758C14.3182 20.4758 14.0251 20.5298 13.7533 20.6287C13.4786 19.515 12.4714 18.6864 11.2739 18.6864C10.0763 18.6864 9.0691 19.5149 8.79438 20.6287C8.5226 20.5298 8.22948 20.4758 7.92395 20.4758C6.51568 20.4758 5.36994 21.6213 5.36994 23.0229L5.29962 32.3466L4.06481 31.1747C3.16613 30.322 1.77919 30.2868 0.838316 31.093C-0.159869 31.9485 -0.284452 33.4636 0.560437 34.4704C0.78628 34.7394 7.15172 42.3496 7.38061 42.5737C6.53724 43.1298 5.97926 44.0851 5.97926 45.1685V59.1211C5.97926 59.6066 6.37281 60 6.85825 60C7.34369 60 7.73725 59.6066 7.73725 59.1211V48.7371H18.7693V59.1211C18.7693 59.6066 19.1629 60 19.6483 60C20.1338 60 20.5273 59.6066 20.5273 59.1211V45.1686C20.5273 44.1287 20.013 43.207 19.2261 42.6429C20.0271 41.8743 20.5273 40.7945 20.5273 39.5993V26.3712C20.5277 24.9632 19.3819 23.8175 17.9737 23.8175ZM18.7697 46.9793H7.73748V45.1688C7.73748 44.425 8.34258 43.8199 9.08644 43.8199H17.4207C18.1646 43.8199 18.7697 44.425 18.7697 45.1688V46.9793ZM18.7697 39.5994C18.7697 40.9574 17.6648 42.0621 16.3067 42.0621H10.3733C9.64337 42.0621 8.95553 41.7414 8.48638 41.1821L1.90752 33.3408C1.6791 33.0686 1.71286 32.6591 1.98265 32.4278C2.23697 32.2099 2.61213 32.2195 2.85496 32.4498L4.97099 34.4582C5.32669 34.7957 5.84811 34.8901 6.29956 34.698C6.7509 34.5062 7.04483 34.0655 7.0487 33.5749L7.12816 23.0297C7.12816 22.5908 7.48527 22.2337 7.92418 22.2337C8.36309 22.2337 8.7202 22.5908 8.7202 23.0297V30.153C8.7202 30.6386 9.11375 31.032 9.59919 31.032C10.0846 31.032 10.4782 30.6386 10.4782 30.153V21.2402C10.4782 20.8014 10.8353 20.4443 11.2742 20.4443C11.7131 20.4443 12.0702 20.8014 12.0702 21.2402V30.153C12.0702 30.6386 12.4638 31.032 12.9492 31.032C13.4347 31.032 13.8282 30.6386 13.8282 30.153V23.0297C13.8282 22.5908 14.1853 22.2337 14.6242 22.2337C15.0631 22.2337 15.4201 22.5908 15.4201 23.0297V30.153C15.4201 30.6386 15.8137 31.032 16.2991 31.032C16.7846 31.032 17.1781 30.6386 17.1781 30.153V26.3713C17.1781 25.9324 17.5352 25.5754 17.9741 25.5754C18.413 25.5754 18.7701 25.9324 18.7701 26.3713V39.5994H18.7697ZM36.1316 25.0936C36.4113 24.8263 43.0763 16.85 43.3441 16.5309C44.217 15.4907 44.0882 13.9255 43.0572 13.0418C42.0854 12.2088 40.6523 12.2452 39.724 13.1263L38.3484 14.4318L38.2737 4.52355C38.2737 3.06738 37.089 1.88262 35.6325 1.88262C35.2983 1.88262 34.9786 1.94566 34.684 2.05945C34.4181 0.882187 33.3645 0 32.108 0C30.8515 0 29.7979 0.882187 29.5322 2.05945C29.2376 1.94566 28.918 1.88262 28.5837 1.88262C27.1274 1.88262 25.9425 3.06727 25.9425 4.52355V5.5507C25.6661 5.45238 25.369 5.39836 25.0593 5.39836C23.603 5.39836 22.4181 6.58301 22.4181 8.0393V21.9562C22.4181 23.2205 22.9556 24.3611 23.813 25.1636C22.971 25.7455 22.4181 26.717 22.4181 27.8156V59.1211C22.4181 59.6066 22.8116 60 23.2971 60C23.7825 60 24.1761 59.6066 24.1761 59.1211V31.5241H35.8743V59.1211C35.8743 59.6066 36.2679 60 36.7533 60C37.2388 60 37.6323 59.6066 37.6323 59.1211V27.8156C37.6324 26.6716 37.0326 25.6657 36.1316 25.0936ZM24.1761 8.03918C24.1761 7.55227 24.5722 7.15605 25.0593 7.15605C25.5464 7.15605 25.9425 7.55215 25.9425 8.03918V12.0179C25.9425 12.5033 26.3361 12.8968 26.8215 12.8968C27.3069 12.8968 27.7005 12.5033 27.7005 12.0179V4.52355C27.7005 4.03664 28.0967 3.64043 28.5837 3.64043C29.0707 3.64043 29.4669 4.03652 29.4669 4.52355V12.0179C29.4669 12.5033 29.8605 12.8968 30.3459 12.8968C30.8314 12.8968 31.2249 12.5033 31.2249 12.0179V4.52355V2.64094C31.2249 2.15402 31.621 1.75781 32.1081 1.75781C32.5952 1.75781 32.9913 2.15391 32.9913 2.64094V4.52355V12.0179C32.9913 12.5033 33.3849 12.8968 33.8703 12.8968C34.3558 12.8968 34.7493 12.5033 34.7493 12.0179V4.52355C34.7493 4.03664 35.1456 3.64043 35.6325 3.64043C36.1195 3.64043 36.5157 4.03652 36.5157 4.53012L36.5997 15.6599C36.6034 16.1503 36.8975 16.5911 37.3488 16.7829C37.8001 16.9748 38.3217 16.8806 38.6774 16.543L40.9343 14.4012C41.207 14.1425 41.6277 14.1319 41.9132 14.3764C42.216 14.636 42.2538 15.0956 41.9975 15.4011L35.0761 23.6509C34.5738 24.2496 33.8374 24.593 33.0558 24.593H26.8133C25.3592 24.593 24.1763 23.4102 24.1763 21.9562V8.03918H24.1761ZM35.8744 29.7663H24.1762V27.8156C24.1762 27.0079 24.8333 26.3508 25.6412 26.3508H34.4094C35.2173 26.3508 35.8744 27.0079 35.8744 27.8156V29.7663ZM59.4396 34.4705C60.2845 33.4636 60.1599 31.9485 59.1617 31.0931C58.2212 30.287 56.834 30.3221 55.9352 31.1749L54.7004 32.3467L54.6302 23.0297C54.6302 21.6216 53.4846 20.4759 52.0762 20.4759C51.7706 20.4759 51.4775 20.53 51.2057 20.6289C50.931 19.515 49.9238 18.6865 48.7263 18.6865C47.5287 18.6865 46.5215 19.5151 46.2468 20.6289C45.975 20.5301 45.6819 20.4759 45.3764 20.4759C43.9681 20.4759 42.8225 21.6214 42.8225 23.0297V23.9453C42.5718 23.8629 42.3045 23.8177 42.0265 23.8177C40.6182 23.8177 39.4724 24.9633 39.4724 26.3714V39.5995C39.4724 40.7946 39.9727 41.8745 40.7737 42.6431C39.9867 43.2073 39.4724 44.1288 39.4724 45.1689V59.1211C39.4724 59.6066 39.866 60 40.3514 60C40.8369 60 41.2304 59.6066 41.2304 59.1211V48.7371H49.6255C50.111 48.7371 50.5045 48.3437 50.5045 47.8582C50.5045 47.3727 50.111 46.9793 49.6255 46.9793H41.2304V45.1688C41.2304 44.425 41.8355 43.8199 42.5794 43.8199H50.9137C51.6575 43.8199 52.2626 44.425 52.2626 45.1688V59.1211C52.2626 59.6066 52.6562 60 53.1416 60C53.6271 60 54.0206 59.6066 54.0206 59.1211V45.1686C54.0206 44.0851 53.4626 43.1299 52.6193 42.5739C52.8502 42.3475 59.2156 34.7375 59.4396 34.4705ZM51.514 41.1821C51.0448 41.7412 50.357 42.0621 49.6271 42.0621H43.6936C42.3356 42.0621 41.2307 40.9574 41.2307 39.5994V26.3713C41.2307 25.9324 41.5878 25.5754 42.0267 25.5754C42.4656 25.5754 42.8227 25.9324 42.8227 26.3713V30.153C42.8227 30.6386 43.2163 31.032 43.7017 31.032C44.1871 31.032 44.5807 30.6386 44.5807 30.153V23.0297C44.5807 22.5908 44.9378 22.2337 45.3767 22.2337C45.8156 22.2337 46.1726 22.5908 46.1726 23.0297V30.153C46.1726 30.6386 46.5662 31.032 47.0516 31.032C47.537 31.032 47.9306 30.6386 47.9306 30.153V23.0297V21.2402C47.9306 20.8014 48.2877 20.4443 48.7266 20.4443C49.1655 20.4443 49.5226 20.8014 49.5226 21.2402V30.153C49.5226 30.6386 49.9162 31.032 50.4016 31.032C50.8871 31.032 51.2806 30.6386 51.2806 30.153V23.0297C51.2806 22.5908 51.6377 22.2337 52.0766 22.2337C52.5155 22.2337 52.8727 22.5908 52.8727 23.0363L52.9521 33.5749C52.9559 34.0654 53.2499 34.5061 53.7013 34.6979C54.1526 34.8896 54.674 34.7955 55.0299 34.4579L57.1459 32.4498C57.3888 32.2193 57.7638 32.2097 58.0182 32.4277C58.288 32.659 58.3217 33.0684 58.0933 33.3407L51.514 41.1821Z" fill="#1C221A"/>
</svg>
