<svg width="49" height="60" viewBox="0 0 49 60" fill="none" xmlns="http://www.w3.org/2000/svg">
<path d="M48.3483 18.0992C47.9549 17.4712 47.3406 17.0339 46.6185 16.868L42.815 15.994L44.5712 15.5024C46.0263 15.0952 46.903 13.5411 46.495 12.0832C46.0877 10.6281 44.5338 9.75168 43.0757 10.1594L34.8871 12.4512C34.674 12.0633 34.3708 11.7313 34.0057 11.4843C35.6675 8.3916 38.0617 3.14336 38.0617 0.885514C38.0617 0.334851 37.5412 -0.0912429 37.0011 0.0176242C33.7514 0.674108 30.7215 0.977038 27.742 0.944577C24.6794 0.910944 20.8679 0.530554 18.473 0.0196164C17.7327 -0.138352 17.1385 0.690163 17.529 1.34102C18.1126 2.31368 18.4701 3.34211 18.6666 4.37864C15.6609 4.47075 12.5438 4.10653 10.1846 2.9268C9.54911 2.60899 8.79899 3.16504 8.91524 3.8643C9.65727 8.3159 11.1542 10.9259 12.655 12.8978H12.6218C11.0921 12.8978 9.84759 14.1423 9.84759 15.672C9.84759 17.0788 10.9005 18.2435 12.2594 18.4218C11.2688 20.0809 9.85415 21.6551 8.36774 23.307C5.20685 26.8198 1.62408 30.8014 0.418688 37.2301C-0.158109 40.3062 -0.13889 43.1844 0.475993 45.7851C1.04998 48.2129 2.14322 50.4106 3.72513 52.3167C5.82501 54.847 8.71005 56.8103 12.3 58.1523C15.5338 59.3611 19.2372 60 23.0102 60C26.7832 60 30.4867 59.3611 33.7204 58.1523C37.3103 56.8103 40.1954 54.8469 42.2953 52.3167C43.8772 50.4106 44.9704 48.2131 45.5444 45.7851C46.1592 43.1844 46.1785 40.3061 45.6017 37.2301C44.3963 30.8015 40.8137 26.8199 37.6528 23.3071C36.5797 22.1145 35.5587 20.9774 34.7028 19.8234L45.3761 22.2756C46.5069 22.5354 47.7118 22.0408 48.3364 21.0637C48.908 20.1691 48.9114 18.9978 48.3483 18.0992ZM27.7225 2.71516C30.4487 2.74493 33.2077 2.50657 36.1221 1.98719C35.5877 4.17192 33.8717 8.05762 32.2441 11.0177C31.1162 11.1026 30.1747 11.8646 29.8257 12.8977H27.3676C27.312 12.778 27.2505 12.6469 27.1819 12.5012C26.4219 10.8855 24.8401 7.52336 24.8401 4.66305C24.8401 4.11321 24.3208 3.68688 23.7811 3.79493C22.7507 4.00106 21.6172 4.16782 20.4377 4.27235C20.3141 3.5336 20.1222 2.79368 19.8433 2.06594C22.2222 2.43415 25.2188 2.68762 27.7225 2.71516ZM33.4577 13.7829V17.5606C33.4577 18.1138 33.0076 18.5641 32.4542 18.5641C31.9009 18.5641 31.4507 18.1139 31.4507 17.5606V13.7829C31.4507 13.2296 31.9009 12.7795 32.4542 12.7795C33.0076 12.7795 33.4577 13.2297 33.4577 13.7829ZM10.9791 5.16871C13.1926 5.92422 15.9154 6.25926 18.856 6.1559L20.6108 6.04504C21.4385 5.9691 22.2782 5.85977 23.1242 5.71668C23.4003 8.45582 24.6516 11.2704 25.412 12.8977H19.5166H17.654H14.9147C14.8948 12.8666 14.8735 12.8362 14.8495 12.8071C13.3686 11.0255 11.8659 8.96477 10.9791 5.16871ZM36.3364 24.4913C39.3417 27.8309 42.7475 31.616 43.8615 37.5562C44.8865 43.0232 43.9011 47.6087 40.9326 51.1854C37.2724 55.5957 30.5724 58.229 23.0103 58.229C15.4482 58.229 8.74813 55.5959 5.0879 51.1855C2.11943 47.6088 1.13412 43.0233 2.15904 37.5563C3.2729 31.616 6.67896 27.8308 9.68411 24.4913C11.4809 22.4943 13.1785 20.6055 14.2665 18.446H16.4288C16.918 18.446 17.3142 18.0496 17.3142 17.5607C17.3142 17.0717 16.9179 16.6753 16.4288 16.6753H12.6216C12.0683 16.6753 11.6182 16.2252 11.6182 15.6719C11.6182 15.1185 12.0683 14.6684 12.6216 14.6684H29.6799V16.6752H20.649C20.1598 16.6752 19.7636 17.0717 19.7636 17.5606C19.7636 18.0495 20.16 18.4459 20.649 18.4459H29.8256C30.196 19.5426 31.2339 20.3348 32.4541 20.3348C32.5951 20.3348 32.7333 20.324 32.8688 20.3037C33.8569 21.733 35.0614 23.0745 36.3364 24.4913ZM35.2285 14.1945L43.5529 11.8647C44.08 11.7169 44.6425 12.0345 44.7897 12.5605C44.9371 13.0878 44.6201 13.65 44.0939 13.7972L39.3365 15.1287C39.2977 15.1396 39.2607 15.1537 39.2247 15.1693L35.2285 14.2511V14.1945ZM46.9753 19.7963C46.8513 20.3356 46.3127 20.6737 45.7726 20.5496L35.1728 18.1142C35.2092 17.9352 35.2284 17.7501 35.2284 17.5605V16.0677L46.2219 18.5936C46.7547 18.716 47.0977 19.263 46.9753 19.7963Z" fill="#1C221A"/>
<rect x="16" y="16" width="5" height="3" rx="1.5" fill="#1C221A"/>
<path d="M23.5 42.2222C22.2591 42.2222 21.25 41.3751 21.25 40.3333H19C19 42.0881 20.44 43.5548 22.375 43.977V46H24.625V44.1111H28V40.3333C28 38.2499 25.9818 36.5556 23.5 36.5556C22.2591 36.5556 21.25 35.7084 21.25 34.6667V32.7778H23.5C24.7409 32.7778 25.75 33.6249 25.75 34.6667H28C28 32.9119 26.56 31.4452 24.625 31.023V29H22.375V30.8889H19V34.6667C19 36.7501 21.0182 38.4444 23.5 38.4444C24.7409 38.4444 25.75 39.2916 25.75 40.3333V42.2222H23.5Z" fill="#1C221A"/>
</svg>
