<svg width="60" height="60" viewBox="0 0 60 60" fill="none" xmlns="http://www.w3.org/2000/svg">
<path d="M58.6451 44.7097C59.5189 43.5445 59.9999 42.1016 59.9999 40.6452V28.0645C59.9999 26.4639 58.6973 25.1613 57.0967 25.1613C56.7144 25.1613 56.3515 25.2397 56.0167 25.3742C55.6828 24.1403 54.5641 23.2258 53.2257 23.2258C52.4796 23.2258 51.8051 23.5171 51.2902 23.9806C50.7754 23.5161 50.1009 23.2258 49.3547 23.2258C49.0141 23.2258 48.6909 23.2955 48.387 23.4039V14.5161C48.387 14.069 48.2776 13.651 48.0957 13.2726L52.258 9.11033L55.6857 12.5381L58.4273 1.57259L47.4618 4.3142L50.8896 7.74194L46.7273 11.9042C46.3489 11.7223 45.9309 11.6129 45.4838 11.6129C44.2238 11.6129 43.1593 12.4248 42.7586 13.5484H33.4702L0.283447 46.7352L1.65183 48.1036L34.2715 15.4839H42.5805V32.9168C42.5805 33.3571 42.4789 33.7974 42.2854 34.1932L41.4734 30.1345C40.8918 27.2303 38.3196 25.1216 35.3573 25.1216C34.0054 25.1216 32.9051 26.2219 32.9041 27.5748C32.9041 28.0606 33.0463 28.531 33.3163 28.9355L34.3122 30.4287C34.6809 30.9813 34.9189 31.6229 35.0022 32.2819L35.6709 37.6374C35.7822 38.5287 36.0647 39.3774 36.4809 40.1013L39.6773 46.6742V48.3871H37.7418V60H59.0322V48.3871H57.0967V46.7739L58.6451 44.7097ZM55.766 4.23388L54.6367 8.75226L51.2476 5.36323L55.766 4.23388ZM57.0967 50.3226V52.2581H39.6773V50.3226H57.0967ZM39.6773 58.0645V54.1936H57.0967V58.0645H39.6773ZM41.6128 48.3871V46.229L38.1899 39.1974C37.8715 38.64 37.6693 38.0342 37.5899 37.3974L36.9212 32.0419C36.8012 31.0858 36.4557 30.1568 35.9215 29.3555L34.9257 27.8613C34.8686 27.7761 34.8386 27.6765 34.8386 27.5739C34.8386 27.2884 35.0709 27.0561 35.3564 27.0561C37.4002 27.0561 39.1741 28.5097 39.5747 30.5139L40.8193 36.7336H43.1786L44.0051 35.0807C44.3389 34.4119 44.516 33.6639 44.516 32.9168V14.5161C44.516 13.9829 44.9505 13.5484 45.4838 13.5484C46.017 13.5484 46.4515 13.9829 46.4515 14.5161V26.129V30H48.387V26.129C48.387 25.5958 48.8215 25.1613 49.3547 25.1613C49.888 25.1613 50.3225 25.5958 50.3225 26.129V30H52.258V26.129C52.258 25.5958 52.6925 25.1613 53.2257 25.1613C53.7589 25.1613 54.1935 25.5958 54.1935 26.129V28.0645V30H56.1289V28.0645C56.1289 27.5313 56.5634 27.0968 57.0967 27.0968C57.6299 27.0968 58.0644 27.5313 58.0644 28.0645V40.6452C58.0644 41.6855 57.7209 42.7171 57.0967 43.5484L55.1612 46.1294V48.3871H41.6128Z" fill="#1C221A"/>
<path d="M12.5806 25.1613C19.5174 25.1613 25.1613 19.5174 25.1613 12.5806C25.1613 5.64387 19.5174 0 12.5806 0C5.64387 0 0 5.64387 0 12.5806C0 19.5174 5.64387 25.1613 12.5806 25.1613ZM12.5806 1.93548C18.45 1.93548 23.2258 6.71129 23.2258 12.5806C23.2258 18.45 18.45 23.2258 12.5806 23.2258C6.71129 23.2258 1.93548 18.45 1.93548 12.5806C1.93548 6.71129 6.71129 1.93548 12.5806 1.93548Z" fill="#1C221A"/>
<path d="M12.5807 17.4194C11.5133 17.4194 10.6452 16.5513 10.6452 15.4839H8.70972C8.70972 17.2819 9.94843 18.7848 11.6129 19.2174V21.2903H13.5484V19.3548H16.4517V15.4839C16.4517 13.349 14.7155 11.6129 12.5807 11.6129C11.5133 11.6129 10.6452 10.7448 10.6452 9.67742V7.74194H12.5807C13.6481 7.74194 14.5162 8.61 14.5162 9.67742H16.4517C16.4517 7.87936 15.2129 6.37646 13.5484 5.94388V3.87097H11.6129V5.80646H8.70972V9.67742C8.70972 11.8123 10.4458 13.5484 12.5807 13.5484C13.6481 13.5484 14.5162 14.4165 14.5162 15.4839V17.4194H12.5807Z" fill="#1C221A"/>
<path d="M19.3547 11.6129H21.2902V13.5484H19.3547V11.6129Z" fill="#1C221A"/>
<path d="M3.87085 11.6129H5.80633V13.5484H3.87085V11.6129Z" fill="#1C221A"/>
<path d="M1.93555 60H9.67748V48.3871H1.93555V60ZM3.87103 50.3226H7.742V58.0645H3.87103V50.3226Z" fill="#1C221A"/>
<path d="M13.5483 60H21.2903V38.7097H13.5483V60ZM15.4838 40.6452H19.3548V58.0645H15.4838V40.6452Z" fill="#1C221A"/>
<path d="M25.1614 60H32.9033V30.9677H25.1614V60ZM27.0969 32.9032H30.9678V58.0645H27.0969V32.9032Z" fill="#1C221A"/>
</svg>
