<svg width="22" height="22" viewBox="0 0 22 22" fill="none" xmlns="http://www.w3.org/2000/svg">
<path d="M6.74514 0.845703H15.2547C18.5075 0.845703 21.1538 3.49201 21.1538 6.74477V15.2543C21.1538 18.5071 18.5075 21.1534 15.2547 21.1534H6.74518C3.49242 21.1534 0.846117 18.5071 0.846117 15.2544V6.74477C0.846117 3.49201 3.49242 0.845703 6.74514 0.845703ZM2.43266 15.2543C2.43266 17.6323 4.36724 19.5669 6.74514 19.5669H15.2547C17.6327 19.5669 19.5673 17.6323 19.5673 15.2544V6.74477C19.5673 4.36683 17.6327 2.43224 15.2547 2.43224H6.74518C4.36724 2.43224 2.43266 4.36683 2.43266 6.74477V15.2543Z" fill="#489D96"/>
<path d="M11.0001 5.52637C14.0182 5.52637 16.4736 7.98177 16.4736 10.9999C16.4736 14.0181 14.0182 16.4735 11.0001 16.4735C7.98192 16.4735 5.52652 14.0181 5.52652 10.9999C5.52652 7.98177 7.98192 5.52637 11.0001 5.52637ZM11.0001 14.8869C13.1434 14.8869 14.8871 13.1432 14.8871 10.9999C14.8871 8.85663 13.1434 7.11291 11.0001 7.11291C8.85678 7.11291 7.11306 8.85663 7.11306 10.9999C7.11306 13.1432 8.85678 14.8869 11.0001 14.8869Z" fill="#489D96"/>
<path d="M5.44721 6.23986C5.0091 6.23986 4.65394 5.8847 4.65394 5.44659C4.65394 5.00848 5.0091 4.65332 5.44721 4.65332C5.88532 4.65332 6.24048 5.00848 6.24048 5.44659C6.24048 5.8847 5.88532 6.23986 5.44721 6.23986Z" fill="#489D96"/>
</svg>
