<svg width="50" height="50" viewBox="0 0 50 50" fill="none" xmlns="http://www.w3.org/2000/svg">
<rect opacity="0.15" width="50" height="50" rx="5" fill="#889993"/>
<path d="M35.4043 9C34.5229 9 33.8085 9.71633 33.8085 10.6V11.1333H22.1064C20.6383 11.1351 19.4485 12.328 19.4468 13.8V16.4667H18.383C17.5017 16.4667 16.7872 17.183 16.7872 18.0667V19.904C14.4703 21.3359 13.0606 23.871 13.0638 26.6V27.2315C12.4285 27.4567 12.0028 28.0577 12 28.7333V29.8C12 30.0945 12.2382 30.3333 12.5319 30.3333H29.5532C29.8469 30.3333 30.0851 30.0945 30.0851 29.8V28.7333C30.0823 28.0577 29.6566 27.4567 29.0213 27.2315V26.6C29.0244 24.4763 28.182 22.4391 26.6809 20.9408C26.2637 20.5375 25.7993 20.1863 25.2979 19.8949V18.0667C25.2979 17.183 24.5834 16.4667 23.7021 16.4667H22.6383V14.8667C22.6383 14.5721 22.8765 14.3333 23.1702 14.3333H33.8085V15.4C33.8085 16.2837 34.5229 17 35.4043 17H37V9H35.4043ZM29.0213 28.7333V29.2667H13.0638V28.7333C13.0638 28.4388 13.302 28.2 13.5957 28.2H28.4894C28.7831 28.2 29.0213 28.4388 29.0213 28.7333ZM25.9314 21.6965C27.2313 22.9951 27.9605 24.7601 27.9574 26.6V27.1333H14.1277V26.6C14.1259 24.1901 15.3949 21.9589 17.4644 20.7333H24.6245C25.1003 20.9957 25.5397 21.3195 25.9314 21.6965ZM23.7021 17.5333C23.9959 17.5333 24.234 17.7721 24.234 18.0667V19.6667H17.8511V18.0667C17.8511 17.7721 18.0892 17.5333 18.383 17.5333H23.7021ZM33.8085 13.2667H23.1702C22.2889 13.2667 21.5745 13.983 21.5745 14.8667V16.4667H20.5106V13.8C20.5106 12.9163 21.2251 12.2 22.1064 12.2H33.8085V13.2667ZM35.9362 15.9333H35.4043C35.1105 15.9333 34.8723 15.6945 34.8723 15.4V10.6C34.8723 10.3055 35.1105 10.0667 35.4043 10.0667H35.9362V15.9333Z" fill="#489D96"/>
<path d="M21.0424 31.4001C20.7487 31.4001 20.5105 31.6389 20.5105 31.9335V34.0668C20.5105 34.3613 20.7487 34.6001 21.0424 34.6001C21.3362 34.6001 21.5743 34.3613 21.5743 34.0668V31.9335C21.5743 31.6389 21.3362 31.4001 21.0424 31.4001Z" fill="#489D96"/>
<path d="M21.0424 35.6665C20.7487 35.6665 20.5105 35.9053 20.5105 36.1998V38.3332C20.5105 38.6277 20.7487 38.8665 21.0424 38.8665C21.3362 38.8665 21.5743 38.6277 21.5743 38.3332V36.1998C21.5743 35.9053 21.3362 35.6665 21.0424 35.6665Z" fill="#489D96"/>
<path d="M27.4255 33.5334C27.1317 33.5334 26.8936 33.7722 26.8936 34.0668V36.2001C26.8936 36.4946 27.1317 36.7334 27.4255 36.7334C27.7192 36.7334 27.9574 36.4946 27.9574 36.2001V34.0668C27.9574 33.7722 27.7192 33.5334 27.4255 33.5334Z" fill="#489D96"/>
<path d="M23.1701 33.5334C22.8763 33.5334 22.6382 33.7722 22.6382 34.0668V36.2001C22.6382 36.4946 22.8763 36.7334 23.1701 36.7334C23.4638 36.7334 23.702 36.4946 23.702 36.2001V34.0668C23.702 33.7722 23.4638 33.5334 23.1701 33.5334Z" fill="#489D96"/>
<path d="M18.915 33.5334C18.6212 33.5334 18.3831 33.7722 18.3831 34.0668V36.2001C18.3831 36.4946 18.6212 36.7334 18.915 36.7334C19.2087 36.7334 19.4469 36.4946 19.4469 36.2001V34.0668C19.4469 33.7722 19.2087 33.5334 18.915 33.5334Z" fill="#489D96"/>
<path d="M14.6596 33.5334C14.3659 33.5334 14.1277 33.7722 14.1277 34.0668V36.2001C14.1277 36.4946 14.3659 36.7334 14.6596 36.7334C14.9534 36.7334 15.1915 36.4946 15.1915 36.2001V34.0668C15.1915 33.7722 14.9534 33.5334 14.6596 33.5334Z" fill="#489D96"/>
<path d="M16.7873 31.4001C16.4935 31.4001 16.2554 31.6389 16.2554 31.9335V34.0668C16.2554 34.3613 16.4935 34.6001 16.7873 34.6001C17.081 34.6001 17.3192 34.3613 17.3192 34.0668V31.9335C17.3192 31.6389 17.081 31.4001 16.7873 31.4001Z" fill="#489D96"/>
<path d="M25.298 31.4001C25.0043 31.4001 24.7661 31.6389 24.7661 31.9335V34.0668C24.7661 34.3613 25.0043 34.6001 25.298 34.6001C25.5918 34.6001 25.8299 34.3613 25.8299 34.0668V31.9335C25.8299 31.6389 25.5918 31.4001 25.298 31.4001Z" fill="#489D96"/>
<path d="M25.298 35.6665C25.0043 35.6665 24.7661 35.9053 24.7661 36.1998V38.3332C24.7661 38.6277 25.0043 38.8665 25.298 38.8665C25.5918 38.8665 25.8299 38.6277 25.8299 38.3332V36.1998C25.8299 35.9053 25.5918 35.6665 25.298 35.6665Z" fill="#489D96"/>
<path d="M16.7873 35.6665C16.4935 35.6665 16.2554 35.9053 16.2554 36.1998V38.3332C16.2554 38.6277 16.4935 38.8665 16.7873 38.8665C17.081 38.8665 17.3192 38.6277 17.3192 38.3332V36.1998C17.3192 35.9053 17.081 35.6665 16.7873 35.6665Z" fill="#489D96"/>
<path d="M18.915 37.8C18.6212 37.8 18.3831 38.0388 18.3831 38.3334V40.4667C18.3831 40.7612 18.6212 41 18.915 41C19.2087 41 19.4469 40.7612 19.4469 40.4667V38.3334C19.4469 38.0388 19.2087 37.8 18.915 37.8Z" fill="#489D96"/>
<path d="M23.1701 37.8C22.8763 37.8 22.6382 38.0388 22.6382 38.3334V40.4667C22.6382 40.7612 22.8763 41 23.1701 41C23.4638 41 23.702 40.7612 23.702 40.4667V38.3334C23.702 38.0388 23.4638 37.8 23.1701 37.8Z" fill="#489D96"/>
</svg>
