<svg width="42" height="42" viewBox="0 0 42 42" fill="none" xmlns="http://www.w3.org/2000/svg">
<path d="M41.1794 16.9395H34.4529V15.2031C34.4529 14.7501 34.0856 14.3828 33.6326 14.3828H15.914C15.461 14.3828 15.0937 14.7501 15.0937 15.2031C15.0937 15.6562 15.461 16.0234 15.914 16.0234H32.8123V22.3124C32.8123 27.837 29.8627 32.9716 25.0999 35.7654H9.35298C4.5902 32.9717 1.64062 27.837 1.64062 22.3125V16.0235H7.13668C7.58965 16.0235 7.95698 15.6563 7.95698 15.2032C7.95698 14.7501 7.58965 14.3829 7.13668 14.3829H0.820308C0.367334 14.3829 0 14.7501 0 15.2032V22.3125C0 25.4132 0.833433 28.4536 2.41023 31.1048C3.47359 32.8928 4.85335 34.4717 6.46911 35.7655H0.820308C0.367334 35.7655 0 36.1328 0 36.5858C0 39.5712 2.42868 41.9999 5.41403 41.9999H31.0076C33.993 41.9999 36.4217 39.5712 36.4217 36.5858C36.4217 36.1328 36.0543 35.7655 35.6014 35.7655H27.9838C29.4709 34.5748 30.7574 33.1419 31.782 31.5272H34.0975C38.4548 31.5272 41.9998 27.9823 41.9998 23.625V17.7598C41.9998 17.3067 41.6325 16.9395 41.1794 16.9395ZM34.6912 37.4061C34.3157 39.0937 32.8066 40.3593 31.0076 40.3593H5.41403C3.61501 40.3593 2.10606 39.0937 1.73044 37.4061H9.13322H25.3197H34.6912ZM34.4529 22.3125V21.8613H37.0779V23.625C37.0779 25.2684 35.7409 26.6054 34.0975 26.6054H33.9112C34.2693 25.2104 34.4529 23.7681 34.4529 22.3125ZM40.3591 23.625C40.3591 27.0776 37.5502 29.8866 34.0975 29.8866H32.7013C32.9632 29.3517 33.1972 28.8041 33.4016 28.246H34.0975C36.6456 28.246 38.7185 26.173 38.7185 23.625V21.041C38.7185 20.5879 38.3512 20.2207 37.8982 20.2207H34.4529V18.5801H40.3591V23.625Z" fill="#489D96"/>
<path d="M18.01 4.53986L17.5832 4.00395C16.9566 3.21744 16.9557 2.11798 17.5809 1.33032C17.8626 0.975456 17.8032 0.459482 17.4484 0.17787C17.0934 -0.103905 16.5775 -0.044433 16.2958 0.310432C15.1932 1.69971 15.1948 3.63883 16.2999 5.02613L16.7267 5.56204C17.5454 6.58989 17.5467 8.02666 16.7296 9.05606L16.2922 9.60714C16.0105 9.96201 16.0699 10.478 16.4248 10.7596C16.5757 10.8793 16.7555 10.9374 16.9342 10.9374C17.1759 10.9374 17.4153 10.8311 17.5773 10.627L18.0147 10.0759C19.3092 8.44501 19.3073 6.1685 18.01 4.53986Z" fill="#489D96"/>
<path d="M22.5568 6.38434L22.13 5.84851C21.5035 5.06192 21.5026 3.96246 22.1278 3.1748C22.4095 2.81994 22.3501 2.30396 21.9953 2.02235C21.6403 1.74058 21.1244 1.80005 20.8427 2.15491C19.7401 3.54419 19.7417 5.48331 20.8467 6.8707L21.2735 7.40661C22.0922 8.43453 22.0934 9.87139 21.2764 10.9007L20.8391 11.4517C20.5574 11.8066 20.6168 12.3225 20.9717 12.6042C21.1225 12.7238 21.3024 12.7819 21.4811 12.7819C21.7227 12.7819 21.9623 12.6755 22.1242 12.4715L22.5614 11.9205C23.856 10.2897 23.8541 8.01314 22.5568 6.38434Z" fill="#489D96"/>
<path d="M13.4629 6.38434L13.036 5.84851C12.4095 5.062 12.4086 3.96246 13.0338 3.1748C13.3154 2.81993 13.2561 2.30396 12.9012 2.02227C12.5462 1.74057 12.0304 1.80013 11.7487 2.15483C10.6461 3.5441 10.6477 5.48331 11.7528 6.87061L12.1796 7.40652C12.9982 8.43445 12.9995 9.8713 12.1825 10.9005L11.7451 11.4515C11.4634 11.8064 11.5227 12.3224 11.8776 12.6041C12.0285 12.7238 12.2083 12.7819 12.387 12.7819C12.6287 12.7819 12.8681 12.6756 13.0301 12.4716L13.4675 11.9205C14.762 10.2897 14.7601 8.01314 13.4629 6.38434Z" fill="#489D96"/>
<path d="M12.3275 14.6227C12.1749 14.4701 11.9633 14.3823 11.7476 14.3823C11.5318 14.3823 11.3202 14.4701 11.1676 14.6227C11.0151 14.7761 10.9272 14.9869 10.9272 15.2026C10.9272 15.4184 11.015 15.63 11.1676 15.7834C11.3202 15.936 11.5318 16.0229 11.7476 16.0229C11.9633 16.0229 12.1749 15.936 12.3275 15.7834C12.4808 15.63 12.5679 15.4192 12.5679 15.2026C12.5679 14.9869 12.4808 14.7753 12.3275 14.6227Z" fill="#489D96"/>
<path d="M29.6953 21.4919C29.2423 21.4919 28.875 21.8592 28.875 22.3123C28.875 25.3572 27.6399 28.3496 25.4865 30.5221C25.1675 30.8439 25.1699 31.3633 25.4916 31.6822C25.6516 31.8408 25.8603 31.9199 26.0691 31.9199C26.2803 31.9199 26.4914 31.8388 26.6518 31.677C29.1073 29.1996 30.5156 25.7863 30.5156 22.3123C30.5156 21.8592 30.1483 21.4919 29.6953 21.4919Z" fill="#489D96"/>
<path d="M24.1076 32.7487C23.885 32.3541 23.3847 32.2147 22.9901 32.4373L22.9714 32.4478C22.5767 32.6705 22.4374 33.1708 22.6599 33.5654C22.8107 33.8326 23.0887 33.9828 23.3751 33.9828C23.5116 33.9828 23.6501 33.9486 23.7774 33.8768L23.7961 33.8662C24.1908 33.6436 24.3302 33.1433 24.1076 32.7487Z" fill="#489D96"/>
</svg>
