<svg width="42" height="44" viewBox="0 0 42 44" fill="none" xmlns="http://www.w3.org/2000/svg">
<path d="M38.5044 8.2245C38.2886 7.94323 37.8883 7.89201 37.6102 8.11021C37.3321 8.3284 37.2815 8.73325 37.4972 9.01453C39.4553 11.5676 40.5819 14.695 40.7126 17.9009L32.1547 15.5819C32.512 13.2884 32.6528 10.9587 32.5721 8.64766C32.5254 7.30996 32.4032 5.96521 32.2092 4.63507C33.4116 5.23809 34.5374 6.00225 35.5449 6.90562C35.8083 7.14178 36.211 7.1172 36.4445 6.85096C36.678 6.58456 36.6538 6.17722 36.3905 5.94114C34.7255 4.44841 32.7774 3.3234 30.6762 2.60626L31.292 0.861297C31.4104 0.526055 31.2375 0.157297 30.9061 0.0376725C30.5746 -0.0819524 30.2099 0.0927583 30.0917 0.428L29.4504 2.24498C22.2362 0.434618 14.6759 3.75197 11.0228 10.3472C10.9736 10.4396 10.9276 10.5576 10.9374 10.7157L11.1633 14.0756C11.2065 14.7171 11.648 15.2599 12.2621 15.4263L18.5557 17.1317C19.1601 17.2957 19.8191 17.0548 20.175 16.5176L20.9932 15.2859L21.0927 16.7663C21.1358 17.4078 21.5774 17.9506 22.1915 18.117L24.7225 18.8029L21.1584 32.2544L15.1969 32.237H15.195C14.8439 32.237 14.5588 32.5243 14.5577 32.8797C14.5567 33.2356 14.8412 33.5251 15.1933 33.526L27.6744 33.5626H27.6806C28.3046 33.5626 28.9127 33.3043 29.3496 32.8534L33.8415 28.218C34.7684 27.2615 36.179 26.9168 37.4353 27.3406L38.8014 27.8011L30.2837 36.4747C29.9274 36.8376 29.4329 37.0458 28.9272 37.0458H4.25667C4.19218 36.0663 4.46044 35.1129 5.1575 34.4103C5.73592 33.8273 6.50334 33.5066 7.31935 33.5066H7.32989L12.2185 33.5247H12.2209C12.5718 33.5247 12.8569 33.2376 12.8582 32.8824C12.8595 32.5265 12.5752 32.2369 12.2232 32.2356L7.33431 32.2175C6.1704 32.2131 5.08034 32.668 4.25769 33.4973C3.22142 34.542 2.98204 35.9748 2.98204 37.4325C2.98204 37.9301 3.38228 38.3348 3.87428 38.3348H5.40698L4.08859 41.265C3.87539 41.739 3.86816 42.2551 4.02783 42.7109H0.637315C0.285347 42.7109 0 42.9994 0 43.3555C0 43.7115 0.285347 44 0.637315 44H39.8554C40.2074 44 40.4927 43.7115 40.4927 43.3555C40.4927 42.9994 40.2074 42.7109 39.8554 42.7109H33.8723C34.032 42.2551 34.0247 41.7389 33.8115 41.265L31.7895 36.7707L40.1402 28.2669C40.6023 27.8035 40.4011 26.9758 39.7891 26.7751L37.8383 26.1175C36.1229 25.5394 34.1967 26.0095 32.9311 27.3156L28.4392 31.951C28.2406 32.1559 27.9642 32.2733 27.6806 32.2733H27.6778L22.4769 32.2581L25.9535 19.1363L28.4849 19.8223C29.0892 19.9864 29.7484 19.7453 30.1043 19.2082L30.9225 17.9764L31.022 19.4569C31.0651 20.0983 31.5067 20.6411 32.1208 20.8075L38.4143 22.513C39.0187 22.6769 39.6777 22.4361 40.0337 21.8989L41.8904 19.1033C41.9452 19.0137 41.9987 18.8993 41.9987 18.7413C42.0467 14.9598 40.8061 11.2254 38.5044 8.2245ZM5.82863 42.7109C5.73737 42.7109 5.64865 42.6913 5.56487 42.6528C5.24502 42.5056 5.1032 42.1225 5.24884 41.7988L6.80746 38.3348H8.20871L6.40935 42.3332C6.30611 42.5627 6.0782 42.7109 5.82863 42.7109ZM18.3884 42.7109H7.63971L9.60902 38.3348H19.5477L18.3884 42.7109ZM19.708 42.7109L20.8672 38.3348H28.2913L30.2606 42.7109H19.708ZM32.6514 41.7988C32.7969 42.1226 32.6552 42.5057 32.3341 42.6534C32.2516 42.6915 32.1636 42.7109 32.0724 42.7109C31.8228 42.7109 31.5944 42.5624 31.4909 42.3332L29.6526 38.2481C30.0695 38.1486 30.4652 37.9654 30.8116 37.7096L32.6514 41.7988ZM19.1168 15.7987C19.0663 15.8749 18.9732 15.9101 18.8855 15.8864L12.5919 14.181C12.5042 14.1573 12.4412 14.0797 12.435 13.9881L12.2696 11.5279L20.4763 13.7517L19.1168 15.7987ZM21.1023 12.5868L12.5511 10.2696C15.6378 5.32721 21.19 2.5944 26.8363 3.10375C25.8453 4.19713 24.9353 5.36725 24.1242 6.59693C22.8924 8.46392 21.8778 10.4766 21.1023 12.5868ZM29.0462 18.4894C28.9956 18.5657 28.9026 18.6009 28.8148 18.5771L22.5213 16.8717C22.4336 16.848 22.3705 16.7704 22.3643 16.6788L22.199 14.2186L30.4057 16.4424L29.0462 18.4894ZM30.9163 15.2462L22.3393 12.922C23.0749 10.947 24.0298 9.06265 25.1845 7.31245C26.1228 5.89027 27.1993 4.55145 28.3848 3.32564C29.2128 3.48823 30.0314 3.7237 30.8221 4.02569C31.0831 5.56689 31.244 7.13499 31.2984 8.6932C31.3745 10.8766 31.2456 13.0776 30.9163 15.2462ZM38.9755 21.1801C38.9248 21.2563 38.8319 21.2916 38.7441 21.2678L32.4506 19.5624C32.3629 19.5387 32.2997 19.4611 32.2936 19.3695L32.1283 16.9093L40.335 19.1332L38.9755 21.1801Z" fill="#489D96"/>
</svg>
