<svg width="22" height="16" viewBox="0 0 22 16" fill="none" xmlns="http://www.w3.org/2000/svg">
<path d="M14.2743 0C12.8087 0 11.3823 0.427035 10.1493 1.23491C8.95023 2.02053 7.98314 3.13023 7.35254 4.44398L8.55574 5.06325C9.64282 2.79831 11.8341 1.39134 14.2743 1.39134C17.7934 1.39134 20.6565 4.35596 20.6565 8C20.6565 11.644 17.7934 14.6087 14.2743 14.6087C11.8341 14.6087 9.64286 13.2017 8.55574 10.9367L7.35254 11.556C7.98314 12.8698 8.95023 13.9795 10.1493 14.7651C11.3823 15.573 12.8087 16 14.2743 16C18.5343 16 22.0001 12.4112 22.0001 8.00005C22.0001 3.58885 18.5343 0 14.2743 0Z" fill="#489D96"/>
<path d="M14.2742 8.6956V7.30431H2.57194L4.11231 5.70928L3.16224 4.72549L0 8L3.16224 11.2745L4.11231 10.2907L2.5719 8.6956H14.2742Z" fill="#489D96"/>
</svg>
